<svg width="496" height="496" viewBox="0 0 496 496" fill="none" xmlns="http://www.w3.org/2000/svg">
<mask id="mask0_13_3355" style="mask-type:alpha" maskUnits="userSpaceOnUse" x="0" y="0" width="496" height="496">
<rect width="496" height="496" fill="#060C2B"/>
</mask>
<g mask="url(#mask0_13_3355)">
<rect width="496" height="496" fill="#060C2B"/>
<rect x="191" y="335" width="114" height="41" rx="10" fill="white"/>
<path d="M209.648 361.126C209.348 361.126 209.114 361.042 208.946 360.874C208.79 360.706 208.712 360.472 208.712 360.172V349.12C208.712 348.808 208.79 348.574 208.946 348.418C209.114 348.262 209.348 348.184 209.648 348.184C209.948 348.184 210.176 348.262 210.332 348.418C210.5 348.574 210.584 348.808 210.584 349.12V354.016H210.62L216.146 348.67C216.326 348.502 216.494 348.382 216.65 348.31C216.818 348.226 217.004 348.184 217.208 348.184C217.484 348.184 217.682 348.256 217.802 348.4C217.934 348.532 217.988 348.694 217.964 348.886C217.94 349.078 217.838 349.264 217.658 349.444L211.916 354.916L211.952 353.998L217.928 359.758C218.144 359.962 218.258 360.172 218.27 360.388C218.282 360.604 218.216 360.784 218.072 360.928C217.928 361.06 217.724 361.126 217.46 361.126C217.22 361.126 217.028 361.078 216.884 360.982C216.74 360.886 216.572 360.748 216.38 360.568L210.62 355.078H210.584V360.172C210.584 360.472 210.506 360.706 210.35 360.874C210.194 361.042 209.96 361.126 209.648 361.126ZM223.223 361.162C222.287 361.162 221.579 360.892 221.099 360.352C220.631 359.8 220.397 359.008 220.397 357.976V349.102C220.397 348.802 220.475 348.574 220.631 348.418C220.787 348.262 221.009 348.184 221.297 348.184C221.585 348.184 221.807 348.262 221.963 348.418C222.131 348.574 222.215 348.802 222.215 349.102V357.868C222.215 358.468 222.335 358.918 222.575 359.218C222.827 359.506 223.187 359.65 223.655 359.65C223.763 359.65 223.859 359.65 223.943 359.65C224.027 359.638 224.111 359.626 224.195 359.614C224.339 359.602 224.441 359.644 224.501 359.74C224.561 359.824 224.591 360.004 224.591 360.28C224.591 360.532 224.537 360.73 224.429 360.874C224.321 361.006 224.147 361.09 223.907 361.126C223.799 361.138 223.685 361.144 223.565 361.144C223.445 361.156 223.331 361.162 223.223 361.162ZM226.799 361.108C226.511 361.108 226.289 361.024 226.133 360.856C225.977 360.676 225.899 360.43 225.899 360.118V353.098C225.899 352.786 225.977 352.546 226.133 352.378C226.289 352.21 226.511 352.126 226.799 352.126C227.087 352.126 227.309 352.21 227.465 352.378C227.633 352.546 227.717 352.786 227.717 353.098V360.118C227.717 360.43 227.639 360.676 227.483 360.856C227.327 361.024 227.099 361.108 226.799 361.108ZM226.799 350.254C226.439 350.254 226.157 350.164 225.953 349.984C225.761 349.804 225.665 349.552 225.665 349.228C225.665 348.892 225.761 348.64 225.953 348.472C226.157 348.292 226.439 348.202 226.799 348.202C227.159 348.202 227.435 348.292 227.627 348.472C227.831 348.64 227.933 348.892 227.933 349.228C227.933 349.552 227.831 349.804 227.627 349.984C227.435 350.164 227.159 350.254 226.799 350.254ZM231.176 361.126C230.888 361.126 230.666 361.048 230.51 360.892C230.354 360.724 230.276 360.496 230.276 360.208V349.102C230.276 348.802 230.354 348.574 230.51 348.418C230.666 348.262 230.888 348.184 231.176 348.184C231.464 348.184 231.686 348.262 231.842 348.418C232.01 348.574 232.094 348.802 232.094 349.102V356.05H232.13L235.496 352.702C235.688 352.51 235.862 352.36 236.018 352.252C236.174 352.144 236.378 352.09 236.63 352.09C236.882 352.09 237.074 352.156 237.206 352.288C237.338 352.42 237.404 352.582 237.404 352.774C237.404 352.954 237.314 353.14 237.134 353.332L233.57 356.86V356.014L237.458 359.884C237.65 360.076 237.74 360.268 237.728 360.46C237.716 360.652 237.638 360.814 237.494 360.946C237.35 361.066 237.17 361.126 236.954 361.126C236.678 361.126 236.456 361.072 236.288 360.964C236.132 360.856 235.946 360.694 235.73 360.478L232.13 356.986H232.094V360.208C232.094 360.82 231.788 361.126 231.176 361.126ZM245.509 361C245.185 361 244.933 360.916 244.753 360.748C244.585 360.568 244.501 360.316 244.501 359.992V349.318C244.501 348.994 244.585 348.748 244.753 348.58C244.933 348.4 245.185 348.31 245.509 348.31H248.983C251.071 348.31 252.679 348.856 253.807 349.948C254.947 351.028 255.517 352.594 255.517 354.646C255.517 355.666 255.373 356.572 255.085 357.364C254.797 358.156 254.371 358.822 253.807 359.362C253.255 359.89 252.577 360.298 251.773 360.586C250.969 360.862 250.039 361 248.983 361H245.509ZM246.373 359.434H248.875C249.667 359.434 250.351 359.338 250.927 359.146C251.515 358.942 252.007 358.642 252.403 358.246C252.799 357.85 253.093 357.352 253.285 356.752C253.477 356.152 253.573 355.45 253.573 354.646C253.573 353.05 253.177 351.856 252.385 351.064C251.605 350.272 250.435 349.876 248.875 349.876H246.373V359.434ZM258.721 361.108C258.433 361.108 258.211 361.024 258.055 360.856C257.899 360.676 257.821 360.43 257.821 360.118V353.098C257.821 352.786 257.899 352.546 258.055 352.378C258.211 352.21 258.433 352.126 258.721 352.126C259.009 352.126 259.231 352.21 259.387 352.378C259.555 352.546 259.639 352.786 259.639 353.098V360.118C259.639 360.43 259.561 360.676 259.405 360.856C259.249 361.024 259.021 361.108 258.721 361.108ZM258.721 350.254C258.361 350.254 258.079 350.164 257.875 349.984C257.683 349.804 257.587 349.552 257.587 349.228C257.587 348.892 257.683 348.64 257.875 348.472C258.079 348.292 258.361 348.202 258.721 348.202C259.081 348.202 259.357 348.292 259.549 348.472C259.753 348.64 259.855 348.892 259.855 349.228C259.855 349.552 259.753 349.804 259.549 349.984C259.357 350.164 259.081 350.254 258.721 350.254ZM265.276 361.162C264.748 361.162 264.202 361.102 263.638 360.982C263.086 360.862 262.576 360.658 262.108 360.37C261.952 360.262 261.844 360.142 261.784 360.01C261.724 359.878 261.7 359.746 261.712 359.614C261.736 359.47 261.79 359.35 261.874 359.254C261.97 359.146 262.084 359.08 262.216 359.056C262.36 359.032 262.51 359.062 262.666 359.146C263.134 359.41 263.584 359.596 264.016 359.704C264.448 359.8 264.874 359.848 265.294 359.848C265.93 359.848 266.41 359.734 266.734 359.506C267.058 359.278 267.22 358.972 267.22 358.588C267.22 358.276 267.112 358.036 266.896 357.868C266.68 357.688 266.356 357.55 265.924 357.454L264.214 357.112C263.47 356.956 262.906 356.68 262.522 356.284C262.138 355.888 261.946 355.384 261.946 354.772C261.946 354.22 262.096 353.74 262.396 353.332C262.696 352.924 263.116 352.612 263.656 352.396C264.196 352.168 264.82 352.054 265.528 352.054C266.056 352.054 266.554 352.12 267.022 352.252C267.49 352.384 267.922 352.582 268.318 352.846C268.474 352.93 268.576 353.044 268.624 353.188C268.672 353.32 268.678 353.452 268.642 353.584C268.618 353.716 268.558 353.836 268.462 353.944C268.366 354.04 268.246 354.1 268.102 354.124C267.97 354.136 267.82 354.1 267.652 354.016C267.292 353.788 266.932 353.626 266.572 353.53C266.224 353.434 265.876 353.386 265.528 353.386C264.892 353.386 264.412 353.506 264.088 353.746C263.776 353.974 263.62 354.286 263.62 354.682C263.62 354.982 263.716 355.228 263.908 355.42C264.1 355.612 264.4 355.75 264.808 355.834L266.518 356.176C267.298 356.332 267.886 356.596 268.282 356.968C268.69 357.34 268.894 357.844 268.894 358.48C268.894 359.308 268.564 359.962 267.904 360.442C267.244 360.922 266.368 361.162 265.276 361.162ZM271.817 361.108C271.529 361.108 271.307 361.024 271.151 360.856C270.995 360.676 270.917 360.43 270.917 360.118V353.098C270.917 352.786 270.995 352.546 271.151 352.378C271.307 352.21 271.529 352.126 271.817 352.126C272.105 352.126 272.327 352.21 272.483 352.378C272.651 352.546 272.735 352.786 272.735 353.098V360.118C272.735 360.43 272.657 360.676 272.501 360.856C272.345 361.024 272.117 361.108 271.817 361.108ZM271.817 350.254C271.457 350.254 271.175 350.164 270.971 349.984C270.779 349.804 270.683 349.552 270.683 349.228C270.683 348.892 270.779 348.64 270.971 348.472C271.175 348.292 271.457 348.202 271.817 348.202C272.177 348.202 272.453 348.292 272.645 348.472C272.849 348.64 272.951 348.892 272.951 349.228C272.951 349.552 272.849 349.804 272.645 349.984C272.453 350.164 272.177 350.254 271.817 350.254ZM276.194 361.126C275.906 361.126 275.684 361.048 275.528 360.892C275.372 360.724 275.294 360.496 275.294 360.208V353.008C275.294 352.708 275.372 352.48 275.528 352.324C275.684 352.168 275.9 352.09 276.176 352.09C276.464 352.09 276.68 352.168 276.824 352.324C276.98 352.48 277.058 352.708 277.058 353.008V354.412L276.86 354.088C277.124 353.416 277.538 352.912 278.102 352.576C278.666 352.228 279.314 352.054 280.046 352.054C280.742 352.054 281.318 352.186 281.774 352.45C282.242 352.702 282.59 353.092 282.818 353.62C283.046 354.136 283.16 354.79 283.16 355.582V360.208C283.16 360.496 283.082 360.724 282.926 360.892C282.77 361.048 282.548 361.126 282.26 361.126C281.96 361.126 281.732 361.048 281.576 360.892C281.42 360.724 281.342 360.496 281.342 360.208V355.69C281.342 354.934 281.192 354.382 280.892 354.034C280.604 353.686 280.148 353.512 279.524 353.512C278.792 353.512 278.204 353.74 277.76 354.196C277.328 354.652 277.112 355.264 277.112 356.032V360.208C277.112 360.82 276.806 361.126 276.194 361.126ZM286.565 361.108C286.277 361.108 286.055 361.024 285.899 360.856C285.743 360.676 285.665 360.43 285.665 360.118V353.098C285.665 352.786 285.743 352.546 285.899 352.378C286.055 352.21 286.277 352.126 286.565 352.126C286.853 352.126 287.075 352.21 287.231 352.378C287.399 352.546 287.483 352.786 287.483 353.098V360.118C287.483 360.43 287.405 360.676 287.249 360.856C287.093 361.024 286.865 361.108 286.565 361.108ZM286.565 350.254C286.205 350.254 285.923 350.164 285.719 349.984C285.527 349.804 285.431 349.552 285.431 349.228C285.431 348.892 285.527 348.64 285.719 348.472C285.923 348.292 286.205 348.202 286.565 348.202C286.925 348.202 287.201 348.292 287.393 348.472C287.597 348.64 287.699 348.892 287.699 349.228C287.699 349.552 287.597 349.804 287.393 349.984C287.201 350.164 286.925 350.254 286.565 350.254Z" fill="#F3AF1C"/>
<path d="M41.3599 477.555C93.1194 483.991 146.963 472.355 191.432 445.118L191.682 445.518C147.107 472.819 93.1695 484.475 41.3019 478.027L41.3599 477.555Z" fill="#F3AF1C"/>
<path d="M47.292 490.821C44.0699 490.971 42.4918 488.001 41.7898 485.003C41.3529 483.022 41.1515 480.997 41.1898 478.969C44.2979 480.157 47.354 483.039 48.926 485.669C50.4981 488.299 50.5081 490.671 47.292 490.821Z" fill="#F3AF1C"/>
<path d="M54.7362 471.927C53.6869 473.233 52.4245 474.353 51.0021 475.239C49.5237 476.154 47.8867 476.785 46.176 477.097C46.5991 475.111 47.2237 473.174 48.04 471.315C48.6781 469.915 49.4821 468.567 50.4681 467.661C50.9312 467.218 51.4866 466.884 52.0942 466.683C52.7199 466.466 53.3945 466.434 54.0382 466.589C56.8443 467.225 56.5723 469.575 54.7362 471.927Z" fill="#F3AF1C"/>
<path d="M55.4362 480.239C57.0363 480.765 58.6203 481.715 60.0364 482.855C61.4524 483.995 62.7044 485.221 63.5665 486.477C65.2925 488.963 65.4605 491.327 62.2604 491.749C60.6604 491.981 59.4163 491.327 58.4603 490.259C57.5043 489.191 56.8603 487.733 56.4063 486.247C55.8488 484.289 55.5232 482.273 55.4362 480.239Z" fill="#F3AF1C"/>
<path d="M68.5207 472.425C66.8426 474.843 63.5405 477.381 60.2924 478.143C60.2924 478.143 60.3904 477.391 60.6304 476.281C60.9187 474.911 61.3071 473.564 61.7925 472.251C62.8985 469.357 64.6505 466.591 67.4906 467.115C70.3307 467.639 70.2027 469.995 68.5207 472.425Z" fill="#F3AF1C"/>
<path d="M69.7328 480.697C72.9649 481.553 76.3529 483.967 78.235 486.393C80.1171 488.819 80.4351 491.153 77.255 491.713C74.0749 492.273 72.1528 489.525 71.0828 486.639C70.4013 484.718 69.9482 482.724 69.7328 480.697Z" fill="#F3AF1C"/>
<path d="M82.3151 472.061C80.791 474.679 77.6469 477.287 74.4488 478.237C74.6243 476.212 75.0049 474.211 75.5849 472.263C76.5109 469.305 78.095 466.543 80.961 466.847C83.8271 467.151 83.8491 469.493 82.3151 472.061Z" fill="#F3AF1C"/>
<path d="M84.0291 480.213C87.3052 480.845 90.8473 483.213 92.8634 485.413C94.8774 487.663 95.3314 489.989 92.2113 490.813C89.0812 491.583 86.9832 488.871 85.7371 486.055C84.941 484.181 84.3678 482.221 84.0291 480.213Z" fill="#F3AF1C"/>
<path d="M96.0655 470.853C95.2631 472.312 94.2236 473.628 92.9894 474.747C91.6834 475.947 90.1594 477.015 88.5893 477.523C88.6411 475.502 88.8997 473.491 89.3613 471.523C90.1074 468.523 91.5094 465.553 94.3935 465.723C97.2776 465.893 97.4456 468.239 96.0655 470.853Z" fill="#F3AF1C"/>
<path d="M98.2736 478.909C100.016 479.213 101.702 479.781 103.274 480.593C104.791 481.362 106.184 482.356 107.404 483.541C109.556 485.699 110.148 487.997 107.076 488.941C104.004 489.885 101.756 487.421 100.338 484.653C99.4291 482.825 98.7364 480.897 98.2736 478.909Z" fill="#F3AF1C"/>
<path d="M109.724 468.839C109.395 469.571 109 470.271 108.544 470.931C108.045 471.631 107.492 472.291 106.888 472.903C105.677 474.157 104.243 475.174 102.66 475.903C102.586 473.871 102.72 471.837 103.06 469.833C103.624 466.797 104.86 463.804 107.748 463.82C110.634 463.754 110.936 466.101 109.724 468.839Z" fill="#F3AF1C"/>
<path d="M112.404 476.725C115.728 476.937 119.53 478.869 121.804 480.833C124.078 482.797 124.804 485.073 121.804 486.271C118.778 487.349 116.382 484.969 114.804 482.309C113.788 480.548 112.983 478.674 112.404 476.725Z" fill="#F3AF1C"/>
<path d="M123.23 465.973C122.609 467.521 121.736 468.957 120.646 470.221C120.071 470.902 119.44 471.535 118.76 472.113C118.092 472.646 117.37 473.107 116.604 473.487C116.41 471.471 116.425 469.44 116.648 467.427C117.038 464.417 118.066 461.256 120.95 461.07C123.834 460.884 124.284 463.195 123.23 465.973Z" fill="#F3AF1C"/>
<path d="M126.386 473.703C127.258 473.731 128.124 473.848 128.973 474.051C129.849 474.236 130.712 474.484 131.553 474.793C133.15 475.369 134.651 476.184 136.005 477.211C138.405 479.089 139.261 481.297 136.327 482.611C133.393 483.925 130.869 481.757 129.127 479.151C128.005 477.447 127.086 475.619 126.386 473.703Z" fill="#F3AF1C"/>
<path d="M136.555 462.354C135.681 465.198 133.255 468.505 130.387 470.223C130.072 468.212 129.962 466.174 130.059 464.14C130.259 461.062 131.111 457.918 133.991 457.602C136.853 457.212 137.425 459.472 136.555 462.354Z" fill="#F3AF1C"/>
<path d="M140.163 469.857C143.489 469.673 147.475 471.071 149.987 472.813C152.469 474.491 153.483 476.689 150.631 478.181C147.757 479.625 145.095 477.555 143.213 475.109C141.994 473.484 140.97 471.721 140.163 469.857Z" fill="#F3AF1C"/>
<path d="M149.605 457.87C148.899 460.744 146.737 464.354 143.937 466.121C143.503 464.141 143.273 462.121 143.251 460.094C143.251 458.558 143.435 457.012 143.959 455.768C144.483 454.524 145.341 453.568 146.759 453.284C149.605 452.73 150.319 454.98 149.605 457.87Z" fill="#F3AF1C"/>
<path d="M153.673 465.161C157.027 464.889 161.04 465.921 163.648 467.489C166.256 469.057 167.374 471.145 164.624 472.823C163.248 473.659 161.862 473.623 160.572 473.069C159.282 472.515 158.065 471.415 157.043 470.243C155.726 468.685 154.595 466.98 153.673 465.161Z" fill="#F3AF1C"/>
<path d="M162.406 452.678C161.868 455.572 159.88 459.186 157.239 461.24C156.683 459.281 156.327 457.271 156.177 455.24C155.999 452.154 156.463 448.926 159.278 448.256C160.696 447.932 161.59 448.272 162.088 449.096C162.586 449.92 162.668 451.224 162.406 452.678Z" fill="#F3AF1C"/>
<path d="M166.892 459.696C170.168 459.096 174.292 459.98 176.996 461.414C178.354 462.142 179.324 462.96 179.648 463.881C179.972 464.801 179.626 465.773 178.288 466.659C175.614 468.459 172.72 466.731 170.556 464.537C169.148 463.073 167.919 461.448 166.892 459.696Z" fill="#F3AF1C"/>
<path d="M174.806 446.638C174.583 448.298 174.087 449.91 173.338 451.408C172.568 452.97 171.497 454.364 170.188 455.512C169.515 453.598 169.04 451.621 168.77 449.61C168.41 446.558 168.708 443.374 171.424 442.438C174.14 441.502 175.144 443.678 174.806 446.638Z" fill="#F3AF1C"/>
<path d="M185.02 453.214C186.706 453.376 188.356 453.795 189.914 454.456C192.686 455.684 194.063 457.614 191.542 459.638C189.034 461.694 185.99 460.064 183.69 458.002C182.192 456.62 180.86 455.068 179.722 453.376C181.356 452.994 183.222 452.994 185.02 453.214Z" fill="#F3AF1C"/>
<path d="M186.828 439.902C186.658 442.844 185.14 446.686 182.782 449.062C181.986 447.185 181.383 445.231 180.982 443.232C180.42 440.19 180.476 436.922 183.182 435.902C185.888 434.882 187.006 436.956 186.828 439.902Z" fill="#F3AF1C"/>
<path d="M187.652 447.656C195.853 449.092 200.947 445.82 199.853 440.304C198.759 434.788 193.111 440.868 187.652 447.656Z" fill="#F3AF1C"/>
<path d="M1.38857 427.939C5.4007 400.527 18.0991 371.754 40.7758 356.065C40.8454 356.017 40.9295 355.994 41.0138 356.001C41.0298 356 41.0458 356 41.0618 356.001H41.1098C41.1946 356.016 41.2724 356.057 41.3318 356.119C62.3585 378.56 68.9887 413.073 66.2746 443.002C63.7045 471.357 51.3501 500.204 26.6734 514.404C26.6234 514.444 26.5616 514.468 26.4974 514.47C26.4781 514.472 26.4586 514.472 26.4394 514.47C26.419 514.468 26.3989 514.464 26.3794 514.458C26.3161 514.439 26.2597 514.403 26.2174 514.352C2.70663 492.939 -3.07356 458.37 1.38857 427.939Z" fill="#AA9025"/>
<path d="M26.3814 505.4C26.7514 501.842 27.1034 498.282 27.4614 494.721C23.0953 488.793 18.6191 482.937 14.369 476.921C13.733 476.019 15.031 474.955 15.673 475.863C19.5811 481.397 23.6733 486.799 27.7114 492.243C27.9154 490.21 28.1154 488.176 28.3114 486.141C28.2807 485.986 28.2968 485.825 28.3574 485.679C28.7854 481.311 29.2068 476.942 29.6215 472.571C22.1032 462.338 14.363 452.238 7.03876 441.866C6.40074 440.964 7.70079 439.9 8.34281 440.808C15.323 450.702 22.6773 460.336 29.8675 470.079C30.2848 465.667 30.6948 461.252 31.0975 456.836C31.0431 456.71 31.0212 456.573 31.0338 456.436C31.0464 456.299 31.0931 456.168 31.1695 456.054C31.6509 450.818 32.1269 445.581 32.5976 440.344C25.2673 430.375 17.7311 420.543 10.5969 410.437C9.95885 409.533 11.2589 408.471 11.8989 409.379C18.6851 418.995 25.8313 428.361 32.8256 437.838C33.2869 432.661 33.7476 427.486 34.2076 422.311C34.1822 422.171 34.1946 422.027 34.2436 421.893C34.881 414.718 35.517 407.543 36.1517 400.369C32.2955 395.136 28.3514 389.968 24.5913 384.656C23.9553 383.752 25.2533 382.69 25.8953 383.598C29.2954 388.416 32.8636 393.12 36.3757 397.86C37.3517 386.86 38.3431 375.86 39.3498 364.859C39.4498 363.767 41.1358 363.965 41.0358 365.059C40.3598 372.377 39.6964 379.696 39.0457 387.016C41.6458 384.722 44.2459 382.446 46.778 380.086C47.578 379.346 48.6481 380.686 47.858 381.424C44.9019 384.18 41.8378 386.824 38.8237 389.51C38.5037 393.096 38.1837 396.683 37.8637 400.272C37.8637 400.284 37.8637 400.296 37.8637 400.308C37.2784 406.909 36.6937 413.509 36.1097 420.109C42.6739 414.273 49.3241 408.523 55.7483 402.533C56.5483 401.793 57.6203 403.133 56.8303 403.871C49.9821 410.257 42.8719 416.367 35.8877 422.605C34.9543 433.183 34.0049 443.759 33.0396 454.334C42.1779 446.194 51.4581 438.192 60.4024 429.837C61.2024 429.097 62.2725 430.437 61.4825 431.175C52.1102 439.93 42.3679 448.294 32.8016 456.838C31.9722 465.867 31.1188 474.891 30.2415 483.913C37.8217 477.167 45.506 470.529 52.9282 463.606C53.7282 462.866 54.7982 464.206 54.0102 464.944C46.156 472.273 38.0017 479.279 30.0015 486.439C29.3735 492.831 28.7301 499.221 28.0714 505.608C27.9554 506.69 26.2674 506.492 26.3814 505.4Z" fill="#877112"/>
<path d="M116.762 426.801C122.824 404.101 122.644 377.258 110.362 357.017C110.325 356.956 110.268 356.908 110.2 356.883L110.162 356.867H110.122C110.055 356.851 109.986 356.856 109.922 356.881C86.1572 366.813 69.4807 391.234 61.5625 415.421C54.0622 438.338 53.9622 465.121 68.2867 484.909C68.3117 484.958 68.3516 484.998 68.4007 485.023C68.4151 485.031 68.4306 485.037 68.4467 485.041C68.463 485.047 68.4797 485.052 68.4967 485.055C68.5514 485.062 68.6071 485.053 68.6567 485.029C93.9935 476.767 110.028 452 116.762 426.801Z" fill="#EA9200"/>
<path d="M107.594 435.324C108.052 435.052 107.678 434.308 107.218 434.584C98.3016 439.918 89.1573 444.876 80.125 450.008C81.3691 446.164 82.6171 442.322 83.8692 438.482C83.943 438.432 83.9981 438.359 84.026 438.275C84.0539 438.191 84.0529 438.099 84.0232 438.016C85.4285 433.71 86.8392 429.405 88.2553 425.101C97.2856 419.955 106.442 415.005 115.362 409.671C115.82 409.399 115.446 408.657 114.986 408.933C106.314 414.117 97.4236 418.933 88.6413 423.933C90.108 419.485 91.5747 415.038 93.0414 410.591C93.06 410.555 93.0729 410.517 93.0794 410.477C95.0208 404.59 96.9609 398.703 98.8996 392.816C103.658 390.106 108.474 387.492 113.178 384.686C113.636 384.414 113.262 383.672 112.802 383.946C108.348 386.602 103.802 389.09 99.2836 391.646C100.936 386.622 102.583 381.597 104.226 376.57C105.559 372.468 106.897 368.366 108.238 364.261C108.404 363.753 107.614 363.497 107.45 364.005C105.442 370.174 103.426 376.34 101.402 382.504C100.064 379.564 98.6896 376.636 97.4196 373.666C97.2076 373.172 96.4695 373.552 96.6796 374.042C98.0636 377.278 99.5716 380.46 101.022 383.666C100.088 386.541 99.1483 389.415 98.2016 392.288C98.1641 392.33 98.1358 392.379 98.1186 392.433C98.1014 392.486 98.0956 392.542 98.1016 392.598C96.2762 398.162 94.4515 403.727 92.6274 409.291C89.3993 402.163 86.0412 395.09 82.9751 387.89C82.7651 387.398 82.0251 387.776 82.2351 388.266C85.4152 395.73 88.9113 403.067 92.2354 410.453C89.3367 419.297 86.4452 428.143 83.5611 436.99C79.107 427.139 74.4549 417.365 70.2207 407.417C70.0107 406.923 69.2727 407.303 69.4807 407.793C73.8288 418.007 78.619 428.035 83.1811 438.154C80.7117 445.733 78.2523 453.317 75.8029 460.906C72.0928 452.706 68.2247 444.564 64.6946 436.282C64.4946 435.79 63.7465 436.17 63.9545 436.66C67.6027 445.21 71.6148 453.606 75.4349 462.078C74.7349 464.254 74.0349 466.429 73.3288 468.605C73.2822 468.67 73.2571 468.748 73.2568 468.829C72.9368 469.829 72.6108 470.819 72.2928 471.815C71.6688 473.763 71.0508 475.712 70.4387 477.663C70.2787 478.173 71.0668 478.431 71.2388 477.919C72.1548 474.985 73.0788 472.058 74.0108 469.137C79.411 466.067 84.8732 463.102 90.2113 459.918C90.6674 459.644 90.2953 458.904 89.8353 459.178C84.7452 462.218 79.539 465.057 74.3809 467.979C74.9849 466.08 75.5896 464.182 76.1949 462.284C76.2298 462.244 76.2561 462.196 76.2722 462.145C76.2884 462.094 76.294 462.04 76.2889 461.986C77.441 458.386 78.599 454.782 79.763 451.174C89.0233 445.888 98.4316 440.806 107.594 435.324Z" fill="#F3AF1C"/>
<path d="M130.643 480.099C150.369 460.796 166.266 433.57 165.98 405.763C165.98 405.677 165.95 405.595 165.896 405.529C165.888 405.515 165.878 405.502 165.868 405.491L165.834 405.457C165.775 405.396 165.697 405.357 165.614 405.347C135.653 401.147 104.176 415.825 81.6871 435.52C60.3824 454.178 44.234 481.175 46.854 509.75C46.8516 509.815 46.8683 509.879 46.902 509.934C46.9129 509.951 46.9249 509.967 46.938 509.982C46.951 509.997 46.9651 510.011 46.98 510.024C47.0308 510.065 47.0929 510.089 47.1581 510.094C77.707 516.94 108.746 501.526 130.643 480.099Z" fill="#DA7C1E"/>
<path d="M159.488 411.803C159.962 411.389 159.318 410.655 158.844 411.071C153.121 416.099 147.392 421.121 141.657 426.137C142.067 422.363 142.433 418.585 142.925 414.821C143.007 414.197 142.033 414.139 141.951 414.759C141.417 418.857 141.031 422.977 140.573 427.085C137.906 429.423 135.235 431.763 132.561 434.106C132.498 434.125 132.44 434.158 132.39 434.201C132.34 434.244 132.3 434.298 132.273 434.358L116.742 447.944C117.752 438.812 118.596 429.651 119.81 420.543C119.892 419.919 118.92 419.861 118.838 420.479C117.58 429.925 116.72 439.424 115.662 448.894C107.434 456.094 99.2137 463.298 91.0014 470.505C92.4015 457.884 93.5575 445.224 95.2376 432.638C95.3216 432.014 94.3475 431.953 94.2655 432.574C92.5395 445.498 91.3714 458.498 89.9194 471.455C82.8832 477.632 75.8576 483.824 68.8427 490.029C70.0028 479.519 70.9748 468.977 72.3709 458.494C72.4549 457.872 71.4808 457.812 71.3988 458.432C69.9568 469.253 68.9747 480.137 67.7587 490.983C65.7493 492.762 63.7372 494.539 61.7225 496.315C61.6351 496.354 61.5618 496.418 61.5125 496.499C60.5945 497.314 59.6705 498.124 58.7504 498.938C56.9544 500.538 55.1623 502.138 53.3743 503.738C52.9082 504.16 53.5503 504.892 54.0183 504.472C56.6997 502.06 59.3871 499.656 62.0805 497.26C69.3728 497.392 76.669 497.66 83.9632 497.648C84.5892 497.648 84.6572 496.672 84.0272 496.674C77.067 496.696 70.1028 496.446 63.1426 496.307C64.8906 494.749 66.638 493.193 68.3847 491.639C68.4451 491.619 68.5008 491.587 68.5483 491.545C68.5958 491.503 68.634 491.451 68.6607 491.393C71.9848 488.441 75.3136 485.494 78.647 482.551C91.1854 482.767 103.734 483.269 116.276 483.221C116.9 483.221 116.968 482.245 116.34 482.247C104.14 482.295 91.9275 481.825 79.7271 481.601C83.2845 478.461 86.8473 475.328 90.4154 472.201C90.5201 472.195 90.6198 472.154 90.6985 472.085C90.7772 472.016 90.8303 471.922 90.8494 471.819C94.8495 468.313 98.8537 464.81 102.862 461.308C115.062 461.508 127.283 462.004 139.491 461.958C140.115 461.958 140.183 460.984 139.553 460.986C127.687 461.028 115.814 460.576 103.952 460.358C108.096 456.738 112.241 453.121 116.386 449.508C116.426 449.483 116.462 449.452 116.492 449.416C121.978 444.631 127.463 439.844 132.947 435.056C139.379 435.172 145.813 435.414 152.243 435.398C152.869 435.398 152.937 434.424 152.307 434.424C146.217 434.44 140.127 434.224 134.037 434.104C138.717 430.019 143.392 425.931 148.061 421.837C151.871 418.493 155.679 415.148 159.488 411.803Z" fill="#F3AF1C"/>
<path d="M454.64 477.555C402.881 483.991 349.037 472.355 304.568 445.118L304.318 445.518C348.893 472.819 402.831 484.475 454.698 478.027L454.64 477.555Z" fill="#F3AF1C"/>
<path d="M448.708 490.821C451.93 490.971 453.508 488.001 454.21 485.003C454.647 483.022 454.849 480.997 454.81 478.969C451.702 480.157 448.646 483.039 447.074 485.669C445.502 488.299 445.492 490.671 448.708 490.821Z" fill="#F3AF1C"/>
<path d="M441.264 471.927C442.313 473.233 443.576 474.353 444.998 475.239C446.476 476.154 448.113 476.785 449.824 477.097C449.401 475.111 448.776 473.174 447.96 471.315C447.322 469.915 446.518 468.567 445.532 467.661C445.069 467.218 444.513 466.884 443.906 466.683C443.28 466.466 442.606 466.434 441.962 466.589C439.156 467.225 439.428 469.575 441.264 471.927Z" fill="#F3AF1C"/>
<path d="M440.564 480.239C438.964 480.765 437.38 481.715 435.964 482.855C434.548 483.995 433.296 485.221 432.434 486.477C430.707 488.963 430.539 491.327 433.74 491.749C435.34 491.981 436.584 491.327 437.54 490.259C438.496 489.191 439.14 487.733 439.594 486.247C440.151 484.289 440.477 482.273 440.564 480.239Z" fill="#F3AF1C"/>
<path d="M427.479 472.425C429.157 474.843 432.459 477.381 435.708 478.143C435.708 478.143 435.61 477.391 435.37 476.281C435.081 474.911 434.693 473.564 434.208 472.251C433.102 469.357 431.349 466.591 428.509 467.115C425.669 467.639 425.797 469.995 427.479 472.425Z" fill="#F3AF1C"/>
<path d="M426.267 480.697C423.035 481.553 419.647 483.967 417.765 486.393C415.883 488.819 415.565 491.153 418.745 491.713C421.925 492.273 423.847 489.525 424.917 486.639C425.599 484.718 426.052 482.724 426.267 480.697Z" fill="#F3AF1C"/>
<path d="M413.685 472.061C415.209 474.679 418.353 477.287 421.551 478.237C421.376 476.212 420.995 474.211 420.415 472.263C419.489 469.305 417.905 466.543 415.039 466.847C412.173 467.151 412.151 469.493 413.685 472.061Z" fill="#F3AF1C"/>
<path d="M411.971 480.213C408.695 480.845 405.153 483.213 403.137 485.413C401.123 487.663 400.669 489.989 403.789 490.813C406.919 491.583 409.017 488.871 410.263 486.055C411.059 484.181 411.632 482.221 411.971 480.213Z" fill="#F3AF1C"/>
<path d="M399.934 470.853C400.737 472.312 401.776 473.628 403.011 474.747C404.317 475.947 405.841 477.015 407.411 477.523C407.359 475.502 407.1 473.491 406.639 471.523C405.893 468.523 404.491 465.553 401.607 465.723C398.722 465.893 398.554 468.239 399.934 470.853Z" fill="#F3AF1C"/>
<path d="M397.726 478.909C395.984 479.213 394.298 479.781 392.726 480.593C391.209 481.362 389.816 482.356 388.596 483.541C386.444 485.699 385.852 487.997 388.924 488.941C391.996 489.885 394.244 487.421 395.662 484.653C396.571 482.825 397.264 480.897 397.726 478.909Z" fill="#F3AF1C"/>
<path d="M386.276 468.839C386.605 469.571 387 470.271 387.456 470.931C387.955 471.631 388.508 472.291 389.112 472.903C390.323 474.157 391.757 475.174 393.34 475.903C393.414 473.871 393.28 471.837 392.94 469.833C392.376 466.797 391.14 463.804 388.252 463.82C385.366 463.754 385.064 466.101 386.276 468.839Z" fill="#F3AF1C"/>
<path d="M383.596 476.725C380.272 476.937 376.47 478.869 374.196 480.833C371.922 482.797 371.196 485.073 374.196 486.271C377.222 487.349 379.618 484.969 381.196 482.309C382.212 480.548 383.017 478.674 383.596 476.725Z" fill="#F3AF1C"/>
<path d="M372.77 465.973C373.391 467.521 374.264 468.957 375.354 470.221C375.929 470.902 376.56 471.535 377.24 472.113C377.908 472.646 378.63 473.107 379.396 473.487C379.59 471.471 379.575 469.44 379.352 467.427C378.962 464.417 377.934 461.256 375.05 461.07C372.166 460.884 371.716 463.195 372.77 465.973Z" fill="#F3AF1C"/>
<path d="M369.614 473.703C368.742 473.731 367.876 473.848 367.027 474.051C366.151 474.236 365.288 474.484 364.447 474.793C362.85 475.369 361.349 476.184 359.995 477.211C357.595 479.089 356.739 481.297 359.673 482.611C362.607 483.925 365.131 481.757 366.873 479.151C367.995 477.447 368.914 475.619 369.614 473.703Z" fill="#F3AF1C"/>
<path d="M359.445 462.354C360.319 465.198 362.745 468.505 365.613 470.223C365.928 468.212 366.038 466.174 365.941 464.14C365.741 461.062 364.889 457.918 362.009 457.602C359.147 457.212 358.575 459.472 359.445 462.354Z" fill="#F3AF1C"/>
<path d="M355.837 469.857C352.511 469.673 348.525 471.071 346.013 472.813C343.531 474.491 342.517 476.689 345.369 478.181C348.243 479.625 350.905 477.555 352.787 475.109C354.006 473.484 355.03 471.721 355.837 469.857Z" fill="#F3AF1C"/>
<path d="M346.395 457.87C347.101 460.744 349.263 464.354 352.063 466.121C352.497 464.141 352.727 462.121 352.749 460.094C352.749 458.558 352.565 457.012 352.041 455.768C351.517 454.524 350.659 453.568 349.241 453.284C346.395 452.73 345.681 454.98 346.395 457.87Z" fill="#F3AF1C"/>
<path d="M342.327 465.161C338.973 464.889 334.96 465.921 332.352 467.489C329.744 469.057 328.626 471.145 331.376 472.823C332.752 473.659 334.138 473.623 335.428 473.069C336.718 472.515 337.935 471.415 338.957 470.243C340.274 468.685 341.405 466.98 342.327 465.161Z" fill="#F3AF1C"/>
<path d="M333.594 452.678C334.132 455.572 336.12 459.186 338.761 461.24C339.317 459.281 339.673 457.271 339.823 455.24C340.001 452.154 339.537 448.926 336.722 448.256C335.304 447.932 334.41 448.272 333.912 449.096C333.414 449.92 333.332 451.224 333.594 452.678Z" fill="#F3AF1C"/>
<path d="M329.108 459.696C325.832 459.096 321.708 459.98 319.004 461.414C317.646 462.142 316.676 462.96 316.352 463.881C316.028 464.801 316.374 465.773 317.712 466.659C320.386 468.459 323.28 466.731 325.444 464.537C326.852 463.073 328.081 461.448 329.108 459.696Z" fill="#F3AF1C"/>
<path d="M321.194 446.638C321.417 448.298 321.913 449.91 322.662 451.408C323.432 452.97 324.503 454.364 325.812 455.512C326.485 453.598 326.96 451.621 327.23 449.61C327.59 446.558 327.292 443.374 324.576 442.438C321.86 441.502 320.856 443.678 321.194 446.638Z" fill="#F3AF1C"/>
<path d="M310.98 453.214C309.294 453.376 307.644 453.795 306.086 454.456C303.314 455.684 301.937 457.614 304.458 459.638C306.966 461.694 310.01 460.064 312.31 458.002C313.808 456.62 315.14 455.068 316.278 453.376C314.644 452.994 312.778 452.994 310.98 453.214Z" fill="#F3AF1C"/>
<path d="M309.172 439.902C309.342 442.844 310.86 446.686 313.218 449.062C314.014 447.185 314.617 445.231 315.018 443.232C315.58 440.19 315.524 436.922 312.818 435.902C310.112 434.882 308.994 436.956 309.172 439.902Z" fill="#F3AF1C"/>
<path d="M308.348 447.656C300.147 449.092 295.053 445.82 296.147 440.304C297.241 434.788 302.889 440.868 308.348 447.656Z" fill="#F3AF1C"/>
<path d="M494.611 427.939C490.599 400.527 477.901 371.754 455.224 356.065C455.155 356.017 455.071 355.994 454.986 356.001C454.97 356 454.954 356 454.938 356.001H454.89C454.805 356.016 454.728 356.057 454.668 356.119C433.642 378.56 427.011 413.073 429.725 443.002C432.295 471.357 444.65 500.204 469.327 514.404C469.377 514.444 469.438 514.468 469.503 514.47C469.522 514.472 469.541 514.472 469.561 514.47C469.581 514.468 469.601 514.464 469.621 514.458C469.684 514.439 469.74 514.403 469.783 514.352C493.293 492.939 499.074 458.37 494.611 427.939Z" fill="#AA9025"/>
<path d="M469.619 505.4C469.249 501.842 468.897 498.282 468.539 494.721C472.905 488.793 477.381 482.937 481.631 476.921C482.267 476.019 480.969 474.955 480.327 475.863C476.419 481.397 472.327 486.799 468.289 492.243C468.085 490.21 467.885 488.176 467.689 486.141C467.719 485.986 467.703 485.825 467.643 485.679C467.215 481.311 466.793 476.942 466.379 472.571C473.897 462.338 481.637 452.238 488.961 441.866C489.599 440.964 488.299 439.9 487.657 440.808C480.677 450.702 473.323 460.336 466.133 470.079C465.715 465.667 465.305 461.252 464.902 456.836C464.957 456.71 464.979 456.573 464.966 456.436C464.954 456.299 464.907 456.168 464.83 456.054C464.349 450.818 463.873 445.581 463.402 440.344C470.733 430.375 478.269 420.543 485.403 410.437C486.041 409.533 484.741 408.471 484.101 409.379C477.315 418.995 470.169 428.361 463.174 437.838C462.713 432.661 462.252 427.486 461.792 422.311C461.818 422.171 461.805 422.027 461.756 421.893C461.119 414.718 460.483 407.543 459.848 400.369C463.704 395.136 467.649 389.968 471.409 384.656C472.045 383.752 470.747 382.69 470.105 383.598C466.705 388.416 463.136 393.12 459.624 397.86C458.648 386.86 457.657 375.86 456.65 364.859C456.55 363.767 454.864 363.965 454.964 365.059C455.64 372.377 456.304 379.696 456.954 387.016C454.354 384.722 451.754 382.446 449.222 380.086C448.422 379.346 447.352 380.686 448.142 381.424C451.098 384.18 454.162 386.824 457.176 389.51C457.496 393.096 457.816 396.683 458.136 400.272C458.136 400.284 458.136 400.296 458.136 400.308C458.722 406.909 459.306 413.509 459.89 420.109C453.326 414.273 446.676 408.523 440.252 402.533C439.452 401.793 438.38 403.133 439.17 403.871C446.018 410.257 453.128 416.367 460.112 422.605C461.046 433.183 461.995 443.759 462.96 454.334C453.822 446.194 444.542 438.192 435.598 429.837C434.798 429.097 433.728 430.437 434.518 431.175C443.89 439.93 453.632 448.294 463.198 456.838C464.028 465.867 464.881 474.891 465.759 483.913C458.178 477.167 450.494 470.529 443.072 463.606C442.272 462.866 441.202 464.206 441.99 464.944C449.844 472.273 457.998 479.279 465.999 486.439C466.627 492.831 467.27 499.221 467.929 505.608C468.045 506.69 469.733 506.492 469.619 505.4Z" fill="#877112"/>
<path d="M379.238 426.801C373.176 404.101 373.356 377.258 385.638 357.017C385.675 356.956 385.732 356.908 385.8 356.883L385.838 356.867H385.878C385.945 356.851 386.014 356.856 386.078 356.881C409.843 366.813 426.519 391.234 434.438 415.421C441.938 438.338 442.038 465.121 427.713 484.909C427.688 484.958 427.648 484.998 427.599 485.023C427.585 485.031 427.569 485.037 427.553 485.041C427.537 485.047 427.52 485.052 427.503 485.055C427.449 485.062 427.393 485.053 427.343 485.029C402.007 476.767 385.972 452 379.238 426.801Z" fill="#EA9200"/>
<path d="M388.406 435.324C387.948 435.052 388.322 434.308 388.782 434.584C397.698 439.918 406.843 444.876 415.875 450.008C414.631 446.164 413.383 442.322 412.131 438.482C412.057 438.432 412.002 438.359 411.974 438.275C411.946 438.191 411.947 438.099 411.977 438.016C410.571 433.71 409.161 429.405 407.745 425.101C398.714 419.955 389.558 415.005 380.638 409.671C380.18 409.399 380.554 408.657 381.014 408.933C389.686 414.117 398.576 418.933 407.359 423.933C405.892 419.485 404.425 415.038 402.959 410.591C402.94 410.555 402.927 410.517 402.921 410.477C400.979 404.59 399.039 398.703 397.1 392.816C392.342 390.106 387.526 387.492 382.822 384.686C382.364 384.414 382.738 383.672 383.198 383.946C387.652 386.602 392.198 389.09 396.716 391.646C395.064 386.622 393.417 381.597 391.774 376.57C390.441 372.468 389.103 368.366 387.762 364.261C387.596 363.753 388.386 363.497 388.55 364.005C390.558 370.174 392.574 376.34 394.598 382.504C395.936 379.564 397.31 376.636 398.58 373.666C398.792 373.172 399.53 373.552 399.32 374.042C397.936 377.278 396.428 380.46 394.978 383.666C395.912 386.541 396.852 389.415 397.798 392.288C397.836 392.33 397.864 392.379 397.881 392.433C397.899 392.486 397.904 392.542 397.898 392.598C399.724 398.162 401.549 403.727 403.373 409.291C406.601 402.163 409.959 395.09 413.025 387.89C413.235 387.398 413.975 387.776 413.765 388.266C410.585 395.73 407.089 403.067 403.765 410.453C406.663 419.297 409.555 428.143 412.439 436.99C416.893 427.139 421.545 417.365 425.779 407.417C425.989 406.923 426.727 407.303 426.519 407.793C422.171 418.007 417.381 428.035 412.819 438.154C415.288 445.733 417.748 453.317 420.197 460.906C423.907 452.706 427.775 444.564 431.305 436.282C431.505 435.79 432.253 436.17 432.045 436.66C428.397 445.21 424.385 453.606 420.565 462.078C421.265 464.254 421.965 466.429 422.671 468.605C422.718 468.67 422.743 468.748 422.743 468.829C423.063 469.829 423.389 470.819 423.707 471.815C424.331 473.763 424.949 475.712 425.561 477.663C425.721 478.173 424.933 478.431 424.761 477.919C423.845 474.985 422.921 472.058 421.989 469.137C416.589 466.067 411.127 463.102 405.789 459.918C405.333 459.644 405.705 458.904 406.165 459.178C411.255 462.218 416.461 465.057 421.619 467.979C421.015 466.08 420.41 464.182 419.805 462.284C419.77 462.244 419.744 462.196 419.728 462.145C419.712 462.094 419.706 462.04 419.711 461.986C418.559 458.386 417.401 454.782 416.237 451.174C406.977 445.888 397.568 440.806 388.406 435.324Z" fill="#F3AF1C"/>
<path d="M365.357 480.099C345.631 460.796 329.734 433.57 330.02 405.763C330.02 405.677 330.05 405.595 330.104 405.529C330.112 405.515 330.122 405.502 330.132 405.491L330.166 405.457C330.225 405.396 330.303 405.357 330.386 405.347C360.347 401.147 391.824 415.825 414.313 435.52C435.618 454.178 451.766 481.175 449.146 509.75C449.148 509.815 449.132 509.879 449.098 509.934C449.087 509.951 449.075 509.967 449.062 509.982C449.049 509.997 449.035 510.011 449.02 510.024C448.969 510.065 448.907 510.089 448.842 510.094C418.293 516.94 387.254 501.526 365.357 480.099Z" fill="#DA7C1E"/>
<path d="M336.512 411.803C336.038 411.389 336.682 410.655 337.156 411.071C342.879 416.099 348.608 421.121 354.343 426.137C353.933 422.363 353.567 418.585 353.075 414.821C352.993 414.197 353.967 414.139 354.049 414.759C354.583 418.857 354.969 422.977 355.427 427.085C358.094 429.423 360.765 431.763 363.439 434.106C363.502 434.125 363.56 434.158 363.61 434.201C363.66 434.244 363.7 434.298 363.727 434.358L379.258 447.944C378.248 438.812 377.404 429.651 376.19 420.543C376.108 419.919 377.08 419.861 377.162 420.479C378.42 429.925 379.28 439.424 380.338 448.894C388.566 456.094 396.786 463.298 404.999 470.505C403.599 457.884 402.443 445.224 400.762 432.638C400.678 432.014 401.652 431.953 401.734 432.574C403.461 445.498 404.629 458.498 406.081 471.455C413.117 477.632 420.142 483.824 427.157 490.029C425.997 479.519 425.025 468.977 423.629 458.494C423.545 457.872 424.519 457.812 424.601 458.432C426.043 469.253 427.025 480.137 428.241 490.983C430.251 492.762 432.263 494.539 434.277 496.315C434.365 496.354 434.438 496.418 434.487 496.499C435.406 497.314 436.33 498.124 437.25 498.938C439.046 500.538 440.838 502.138 442.626 503.738C443.092 504.16 442.45 504.892 441.982 504.472C439.3 502.06 436.613 499.656 433.919 497.26C426.627 497.392 419.331 497.66 412.037 497.648C411.411 497.648 411.343 496.672 411.973 496.674C418.933 496.696 425.897 496.446 432.857 496.307C431.109 494.749 429.362 493.193 427.615 491.639C427.555 491.619 427.499 491.587 427.452 491.545C427.404 491.503 427.366 491.451 427.339 491.393C424.015 488.441 420.686 485.494 417.353 482.551C404.815 482.767 392.266 483.269 379.724 483.221C379.1 483.221 379.032 482.245 379.66 482.247C391.86 482.295 404.073 481.825 416.273 481.601C412.715 478.461 409.153 475.328 405.585 472.201C405.48 472.195 405.38 472.154 405.302 472.085C405.223 472.016 405.17 471.922 405.151 471.819C401.15 468.313 397.146 464.81 393.138 461.308C380.938 461.508 368.717 462.004 356.509 461.958C355.885 461.958 355.817 460.984 356.447 460.986C368.313 461.028 380.186 460.576 392.048 460.358C387.904 456.738 383.759 453.121 379.614 449.508C379.574 449.483 379.538 449.452 379.508 449.416C374.022 444.631 368.537 439.844 363.053 435.056C356.621 435.172 350.187 435.414 343.757 435.398C343.131 435.398 343.063 434.424 343.693 434.424C349.783 434.44 355.873 434.224 361.963 434.104C357.283 430.019 352.608 425.931 347.939 421.837C344.129 418.493 340.321 415.148 336.512 411.803Z" fill="#F3AF1C"/>
<path d="M454 14.2794L474.307 -6.02765V22.6909H503.028L482.721 43L503.028 63.3071H474.307V92.0277L454 71.7207L433.693 92.0277V63.3071H404.972L425.279 43L404.972 22.6909H433.693V-6.02765L454 14.2794Z" fill="#F3AF1C"/>
<path d="M496.519 116.538H527.538V85.5194L516.735 74.7158H485.716V105.735L496.519 116.538ZM432.066 125.066L454 147L475.934 125.066V109.785L454 87.8531L432.066 109.787V125.066ZM380.462 85.5194V116.538H411.481L422.284 105.735V74.7158H391.265L380.462 85.5194ZM371.934 21.0664L350 43L371.934 64.9336H387.213L409.147 43L387.213 21.0664H371.934ZM411.481 -30.5384H380.462V0.478559L391.265 11.2842H422.284V-19.7349L411.481 -30.5384ZM475.934 -39.0664L454 -61L432.066 -39.0664V-23.7867L454 -1.85313L475.934 -23.7867V-39.0664ZM527.538 0.478559V-30.5384H496.519L485.716 -19.7349V11.2842H516.735L527.538 0.478559ZM520.787 21.0706L498.853 43L520.787 64.9336H536.066L558 43L536.066 21.0664L520.787 21.0706Z" fill="#6BAAB7"/>
<path d="M496.519 116.538H527.538V85.5194L516.735 74.7158H485.716V105.735L496.519 116.538ZM432.066 125.066L454 147L475.934 125.066V109.785L454 87.8531L432.066 109.787V125.066ZM380.462 85.5194V116.538H411.481L422.284 105.735V74.7158H391.265L380.462 85.5194ZM371.934 21.0664L350 43L371.934 64.9336H387.213L409.147 43L387.213 21.0664H371.934ZM411.481 -30.5384H380.462V0.478559L391.265 11.2842H422.284V-19.7349L411.481 -30.5384ZM475.934 -39.0664L454 -61L432.066 -39.0664V-23.7867L454 -1.85313L475.934 -23.7867V-39.0664ZM527.538 0.478559V-30.5384H496.519L485.716 -19.7349V11.2842H516.735L527.538 0.478559ZM520.787 21.0706L498.853 43L520.787 64.9336H536.066L558 43L536.066 21.0664L520.787 21.0706Z" fill="#BFA32B"/>
<path d="M475.934 33.9146L463.085 21.0664H444.915L432.066 33.9146V52.0854L444.915 64.9336H463.085L475.934 52.0854V33.9146Z" fill="white"/>
<path d="M463.358 65.593L458.927 70.0234L469.625 80.7208V65.593H463.358Z" fill="#EAA028"/>
<path d="M444.642 65.593H438.375V80.7208L449.072 70.0234L444.642 65.593Z" fill="#EAA028"/>
<path d="M431.407 52.3579L426.977 47.9275L416.279 58.625H431.407V52.3579Z" fill="#EAA028"/>
<path d="M431.407 33.6421V27.375H416.279L426.977 38.0725L431.407 33.6421Z" fill="#EAA028"/>
<path d="M444.642 20.4071L449.072 15.9746L438.375 5.27713V20.4071H444.642Z" fill="#EAA028"/>
<path d="M463.358 20.4071H469.625V5.27713L458.927 15.9746L463.358 20.4071Z" fill="#EAA028"/>
<path d="M476.593 33.6421L481.023 38.0725L491.721 27.375H476.593V33.6421Z" fill="#EAA028"/>
<path d="M476.593 52.3579V58.625H491.721L481.023 47.9275L476.593 52.3579Z" fill="#EAA028"/>
<path d="M466.058 38.0059L458.994 30.9422H449.006L441.942 38.0059V47.9941L449.006 55.0577H458.994L466.058 47.9941V38.0059Z" fill="#D8761D"/>
<path d="M442.899 -14.1605L454 -25.2614L465.101 -14.1605V-7.04685L454 4.05411L442.899 -7.04685V-14.1605ZM486.579 -5.26845H502.277V10.4293L497.237 15.4608H481.539V-0.236933L486.579 -5.26845ZM405.74 -5.26845H421.44L426.469 -0.236933V15.4608H410.763L405.731 10.4293L405.74 -5.26845ZM504.047 31.8991H511.16L522.261 43L511.16 54.0989H504.047L492.946 43L504.047 31.8991ZM396.839 31.8991H403.953L415.054 43L403.953 54.0989H396.839L385.741 43L396.839 31.8991ZM481.539 70.5392H497.237L502.268 75.5687V91.256H486.571L481.539 86.237V70.5392ZM410.763 70.5392H426.461V86.237L421.431 91.256H405.731V75.5583L410.763 70.5392ZM442.899 93.0469L454 81.9459L465.101 93.0448V100.16L454 111.259L442.899 100.16V93.0469Z" fill="#967E1A"/>
<path d="M407.433 129.703L418.465 128.788L425.618 137.236L425.098 112.776L407.433 129.703Z" fill="#F3AF1C"/>
<path d="M359.764 71.3816L368.213 78.5347L367.297 89.567L384.224 71.9016L359.764 71.3816Z" fill="#F3AF1C"/>
<path d="M367.297 -3.56703L368.213 7.46529L359.764 14.6184L384.224 14.0984L367.297 -3.56703Z" fill="#F3AF1C"/>
<path d="M500.567 129.703L489.535 128.788L482.382 137.236L482.902 112.776L500.567 129.703Z" fill="#F3AF1C"/>
</g>
</svg>
