<svg width="496" height="496" viewBox="0 0 496 496" fill="none" xmlns="http://www.w3.org/2000/svg">
<mask id="mask0_7_1105" style="mask-type:alpha" maskUnits="userSpaceOnUse" x="0" y="0" width="496" height="496">
<rect width="496" height="496" fill="#060C2B"/>
</mask>
<g mask="url(#mask0_7_1105)">
<rect width="496" height="496" fill="#060C2B"/>
<rect x="191" y="335" width="114" height="41" rx="10" fill="white"/>
<path d="M209.648 361.126C209.348 361.126 209.114 361.042 208.946 360.874C208.79 360.706 208.712 360.472 208.712 360.172V349.12C208.712 348.808 208.79 348.574 208.946 348.418C209.114 348.262 209.348 348.184 209.648 348.184C209.948 348.184 210.176 348.262 210.332 348.418C210.5 348.574 210.584 348.808 210.584 349.12V354.016H210.62L216.146 348.67C216.326 348.502 216.494 348.382 216.65 348.31C216.818 348.226 217.004 348.184 217.208 348.184C217.484 348.184 217.682 348.256 217.802 348.4C217.934 348.532 217.988 348.694 217.964 348.886C217.94 349.078 217.838 349.264 217.658 349.444L211.916 354.916L211.952 353.998L217.928 359.758C218.144 359.962 218.258 360.172 218.27 360.388C218.282 360.604 218.216 360.784 218.072 360.928C217.928 361.06 217.724 361.126 217.46 361.126C217.22 361.126 217.028 361.078 216.884 360.982C216.74 360.886 216.572 360.748 216.38 360.568L210.62 355.078H210.584V360.172C210.584 360.472 210.506 360.706 210.35 360.874C210.194 361.042 209.96 361.126 209.648 361.126ZM223.223 361.162C222.287 361.162 221.579 360.892 221.099 360.352C220.631 359.8 220.397 359.008 220.397 357.976V349.102C220.397 348.802 220.475 348.574 220.631 348.418C220.787 348.262 221.009 348.184 221.297 348.184C221.585 348.184 221.807 348.262 221.963 348.418C222.131 348.574 222.215 348.802 222.215 349.102V357.868C222.215 358.468 222.335 358.918 222.575 359.218C222.827 359.506 223.187 359.65 223.655 359.65C223.763 359.65 223.859 359.65 223.943 359.65C224.027 359.638 224.111 359.626 224.195 359.614C224.339 359.602 224.441 359.644 224.501 359.74C224.561 359.824 224.591 360.004 224.591 360.28C224.591 360.532 224.537 360.73 224.429 360.874C224.321 361.006 224.147 361.09 223.907 361.126C223.799 361.138 223.685 361.144 223.565 361.144C223.445 361.156 223.331 361.162 223.223 361.162ZM226.799 361.108C226.511 361.108 226.289 361.024 226.133 360.856C225.977 360.676 225.899 360.43 225.899 360.118V353.098C225.899 352.786 225.977 352.546 226.133 352.378C226.289 352.21 226.511 352.126 226.799 352.126C227.087 352.126 227.309 352.21 227.465 352.378C227.633 352.546 227.717 352.786 227.717 353.098V360.118C227.717 360.43 227.639 360.676 227.483 360.856C227.327 361.024 227.099 361.108 226.799 361.108ZM226.799 350.254C226.439 350.254 226.157 350.164 225.953 349.984C225.761 349.804 225.665 349.552 225.665 349.228C225.665 348.892 225.761 348.64 225.953 348.472C226.157 348.292 226.439 348.202 226.799 348.202C227.159 348.202 227.435 348.292 227.627 348.472C227.831 348.64 227.933 348.892 227.933 349.228C227.933 349.552 227.831 349.804 227.627 349.984C227.435 350.164 227.159 350.254 226.799 350.254ZM231.176 361.126C230.888 361.126 230.666 361.048 230.51 360.892C230.354 360.724 230.276 360.496 230.276 360.208V349.102C230.276 348.802 230.354 348.574 230.51 348.418C230.666 348.262 230.888 348.184 231.176 348.184C231.464 348.184 231.686 348.262 231.842 348.418C232.01 348.574 232.094 348.802 232.094 349.102V356.05H232.13L235.496 352.702C235.688 352.51 235.862 352.36 236.018 352.252C236.174 352.144 236.378 352.09 236.63 352.09C236.882 352.09 237.074 352.156 237.206 352.288C237.338 352.42 237.404 352.582 237.404 352.774C237.404 352.954 237.314 353.14 237.134 353.332L233.57 356.86V356.014L237.458 359.884C237.65 360.076 237.74 360.268 237.728 360.46C237.716 360.652 237.638 360.814 237.494 360.946C237.35 361.066 237.17 361.126 236.954 361.126C236.678 361.126 236.456 361.072 236.288 360.964C236.132 360.856 235.946 360.694 235.73 360.478L232.13 356.986H232.094V360.208C232.094 360.82 231.788 361.126 231.176 361.126ZM245.509 361C245.185 361 244.933 360.916 244.753 360.748C244.585 360.568 244.501 360.316 244.501 359.992V349.318C244.501 348.994 244.585 348.748 244.753 348.58C244.933 348.4 245.185 348.31 245.509 348.31H248.983C251.071 348.31 252.679 348.856 253.807 349.948C254.947 351.028 255.517 352.594 255.517 354.646C255.517 355.666 255.373 356.572 255.085 357.364C254.797 358.156 254.371 358.822 253.807 359.362C253.255 359.89 252.577 360.298 251.773 360.586C250.969 360.862 250.039 361 248.983 361H245.509ZM246.373 359.434H248.875C249.667 359.434 250.351 359.338 250.927 359.146C251.515 358.942 252.007 358.642 252.403 358.246C252.799 357.85 253.093 357.352 253.285 356.752C253.477 356.152 253.573 355.45 253.573 354.646C253.573 353.05 253.177 351.856 252.385 351.064C251.605 350.272 250.435 349.876 248.875 349.876H246.373V359.434ZM258.721 361.108C258.433 361.108 258.211 361.024 258.055 360.856C257.899 360.676 257.821 360.43 257.821 360.118V353.098C257.821 352.786 257.899 352.546 258.055 352.378C258.211 352.21 258.433 352.126 258.721 352.126C259.009 352.126 259.231 352.21 259.387 352.378C259.555 352.546 259.639 352.786 259.639 353.098V360.118C259.639 360.43 259.561 360.676 259.405 360.856C259.249 361.024 259.021 361.108 258.721 361.108ZM258.721 350.254C258.361 350.254 258.079 350.164 257.875 349.984C257.683 349.804 257.587 349.552 257.587 349.228C257.587 348.892 257.683 348.64 257.875 348.472C258.079 348.292 258.361 348.202 258.721 348.202C259.081 348.202 259.357 348.292 259.549 348.472C259.753 348.64 259.855 348.892 259.855 349.228C259.855 349.552 259.753 349.804 259.549 349.984C259.357 350.164 259.081 350.254 258.721 350.254ZM265.276 361.162C264.748 361.162 264.202 361.102 263.638 360.982C263.086 360.862 262.576 360.658 262.108 360.37C261.952 360.262 261.844 360.142 261.784 360.01C261.724 359.878 261.7 359.746 261.712 359.614C261.736 359.47 261.79 359.35 261.874 359.254C261.97 359.146 262.084 359.08 262.216 359.056C262.36 359.032 262.51 359.062 262.666 359.146C263.134 359.41 263.584 359.596 264.016 359.704C264.448 359.8 264.874 359.848 265.294 359.848C265.93 359.848 266.41 359.734 266.734 359.506C267.058 359.278 267.22 358.972 267.22 358.588C267.22 358.276 267.112 358.036 266.896 357.868C266.68 357.688 266.356 357.55 265.924 357.454L264.214 357.112C263.47 356.956 262.906 356.68 262.522 356.284C262.138 355.888 261.946 355.384 261.946 354.772C261.946 354.22 262.096 353.74 262.396 353.332C262.696 352.924 263.116 352.612 263.656 352.396C264.196 352.168 264.82 352.054 265.528 352.054C266.056 352.054 266.554 352.12 267.022 352.252C267.49 352.384 267.922 352.582 268.318 352.846C268.474 352.93 268.576 353.044 268.624 353.188C268.672 353.32 268.678 353.452 268.642 353.584C268.618 353.716 268.558 353.836 268.462 353.944C268.366 354.04 268.246 354.1 268.102 354.124C267.97 354.136 267.82 354.1 267.652 354.016C267.292 353.788 266.932 353.626 266.572 353.53C266.224 353.434 265.876 353.386 265.528 353.386C264.892 353.386 264.412 353.506 264.088 353.746C263.776 353.974 263.62 354.286 263.62 354.682C263.62 354.982 263.716 355.228 263.908 355.42C264.1 355.612 264.4 355.75 264.808 355.834L266.518 356.176C267.298 356.332 267.886 356.596 268.282 356.968C268.69 357.34 268.894 357.844 268.894 358.48C268.894 359.308 268.564 359.962 267.904 360.442C267.244 360.922 266.368 361.162 265.276 361.162ZM271.817 361.108C271.529 361.108 271.307 361.024 271.151 360.856C270.995 360.676 270.917 360.43 270.917 360.118V353.098C270.917 352.786 270.995 352.546 271.151 352.378C271.307 352.21 271.529 352.126 271.817 352.126C272.105 352.126 272.327 352.21 272.483 352.378C272.651 352.546 272.735 352.786 272.735 353.098V360.118C272.735 360.43 272.657 360.676 272.501 360.856C272.345 361.024 272.117 361.108 271.817 361.108ZM271.817 350.254C271.457 350.254 271.175 350.164 270.971 349.984C270.779 349.804 270.683 349.552 270.683 349.228C270.683 348.892 270.779 348.64 270.971 348.472C271.175 348.292 271.457 348.202 271.817 348.202C272.177 348.202 272.453 348.292 272.645 348.472C272.849 348.64 272.951 348.892 272.951 349.228C272.951 349.552 272.849 349.804 272.645 349.984C272.453 350.164 272.177 350.254 271.817 350.254ZM276.194 361.126C275.906 361.126 275.684 361.048 275.528 360.892C275.372 360.724 275.294 360.496 275.294 360.208V353.008C275.294 352.708 275.372 352.48 275.528 352.324C275.684 352.168 275.9 352.09 276.176 352.09C276.464 352.09 276.68 352.168 276.824 352.324C276.98 352.48 277.058 352.708 277.058 353.008V354.412L276.86 354.088C277.124 353.416 277.538 352.912 278.102 352.576C278.666 352.228 279.314 352.054 280.046 352.054C280.742 352.054 281.318 352.186 281.774 352.45C282.242 352.702 282.59 353.092 282.818 353.62C283.046 354.136 283.16 354.79 283.16 355.582V360.208C283.16 360.496 283.082 360.724 282.926 360.892C282.77 361.048 282.548 361.126 282.26 361.126C281.96 361.126 281.732 361.048 281.576 360.892C281.42 360.724 281.342 360.496 281.342 360.208V355.69C281.342 354.934 281.192 354.382 280.892 354.034C280.604 353.686 280.148 353.512 279.524 353.512C278.792 353.512 278.204 353.74 277.76 354.196C277.328 354.652 277.112 355.264 277.112 356.032V360.208C277.112 360.82 276.806 361.126 276.194 361.126ZM286.565 361.108C286.277 361.108 286.055 361.024 285.899 360.856C285.743 360.676 285.665 360.43 285.665 360.118V353.098C285.665 352.786 285.743 352.546 285.899 352.378C286.055 352.21 286.277 352.126 286.565 352.126C286.853 352.126 287.075 352.21 287.231 352.378C287.399 352.546 287.483 352.786 287.483 353.098V360.118C287.483 360.43 287.405 360.676 287.249 360.856C287.093 361.024 286.865 361.108 286.565 361.108ZM286.565 350.254C286.205 350.254 285.923 350.164 285.719 349.984C285.527 349.804 285.431 349.552 285.431 349.228C285.431 348.892 285.527 348.64 285.719 348.472C285.923 348.292 286.205 348.202 286.565 348.202C286.925 348.202 287.201 348.292 287.393 348.472C287.597 348.64 287.699 348.892 287.699 349.228C287.699 349.552 287.597 349.804 287.393 349.984C287.201 350.164 286.925 350.254 286.565 350.254Z" fill="#F3AF1C"/>
<path d="M439.599 492.433C369.582 501.139 296.745 485.398 236.59 448.554L236.251 449.095C296.551 486.026 369.514 501.794 439.678 493.071L439.599 492.433Z" fill="#F3AF1C"/>
<path d="M431.575 510.379C435.933 510.582 438.068 506.564 439.018 502.508C439.609 499.829 439.881 497.089 439.83 494.345C435.625 495.953 431.491 499.851 429.364 503.409C427.238 506.967 427.224 510.176 431.575 510.379Z" fill="#F3AF1C"/>
<path d="M421.505 484.819C422.924 486.586 424.632 488.101 426.556 489.3C428.556 490.538 430.77 491.391 433.085 491.813C432.512 489.127 431.667 486.506 430.563 483.991C429.7 482.097 428.612 480.274 427.278 479.048C426.652 478.45 425.901 477.998 425.079 477.725C424.232 477.433 423.32 477.389 422.449 477.598C418.653 478.458 419.021 481.637 421.505 484.819Z" fill="#F3AF1C"/>
<path d="M402.858 485.493C405.128 488.764 409.595 492.197 413.989 493.228C413.989 493.228 413.856 492.211 413.531 490.709C413.141 488.856 412.616 487.034 411.959 485.257C410.463 481.342 408.093 477.601 404.251 478.31C400.409 479.018 400.582 482.206 402.858 485.493Z" fill="#F3AF1C"/>
<path d="M384.198 485C386.259 488.542 390.512 492.07 394.839 493.355C394.601 490.616 394.086 487.909 393.302 485.274C392.049 481.272 389.906 477.536 386.029 477.947C382.152 478.358 382.122 481.526 384.198 485Z" fill="#F3AF1C"/>
<path d="M365.597 483.366C366.682 485.341 368.088 487.121 369.758 488.634C371.525 490.257 373.586 491.702 375.71 492.389C375.64 489.655 375.29 486.935 374.666 484.273C373.657 480.214 371.76 476.197 367.859 476.426C363.957 476.656 363.73 479.83 365.597 483.366Z" fill="#F3AF1C"/>
<path d="M362.61 494.264C360.253 494.675 357.972 495.444 355.846 496.542C353.793 497.582 351.909 498.927 350.259 500.53C347.348 503.45 346.547 506.558 350.703 507.835C354.858 509.112 357.899 505.779 359.818 502.035C361.047 499.562 361.984 496.954 362.61 494.264Z" fill="#F3AF1C"/>
<path d="M347.12 480.642C347.565 481.632 348.099 482.579 348.717 483.472C349.391 484.419 350.14 485.312 350.957 486.139C352.595 487.836 354.534 489.212 356.676 490.198C356.776 487.449 356.595 484.698 356.135 481.986C355.372 477.879 353.7 473.832 349.793 473.853C345.889 473.764 345.481 476.938 347.12 480.642Z" fill="#F3AF1C"/>
<path d="M343.495 491.31C338.998 491.597 333.855 494.21 330.779 496.867C327.702 499.524 326.72 502.603 330.779 504.223C334.872 505.682 338.114 502.462 340.248 498.864C341.622 496.481 342.712 493.946 343.495 491.31Z" fill="#F3AF1C"/>
<path d="M328.85 476.765C329.69 478.86 330.871 480.802 332.345 482.511C333.124 483.433 333.977 484.289 334.896 485.071C335.8 485.792 336.778 486.415 337.813 486.93C338.075 484.202 338.055 481.455 337.754 478.732C337.226 474.66 335.835 470.385 331.934 470.133C328.032 469.882 327.424 473.007 328.85 476.765Z" fill="#F3AF1C"/>
<path d="M324.58 487.222C323.401 487.26 322.229 487.418 321.082 487.692C319.896 487.943 318.729 488.278 317.592 488.696C315.43 489.476 313.4 490.579 311.569 491.967C308.322 494.508 307.164 497.495 311.134 499.272C315.103 501.05 318.517 498.117 320.874 494.592C322.39 492.287 323.634 489.814 324.58 487.222Z" fill="#F3AF1C"/>
<path d="M310.825 471.87C312.008 475.718 315.289 480.19 319.169 482.514C319.595 479.794 319.744 477.037 319.613 474.286C319.342 470.122 318.19 465.869 314.294 465.442C310.422 464.914 309.648 467.972 310.825 471.87Z" fill="#F3AF1C"/>
<path d="M305.944 482.019C301.445 481.77 296.053 483.661 292.655 486.018C289.297 488.288 287.925 491.261 291.783 493.279C295.671 495.233 299.272 492.433 301.818 489.124C303.468 486.926 304.853 484.541 305.944 482.019Z" fill="#F3AF1C"/>
<path d="M293.171 465.804C294.126 469.692 297.051 474.576 300.839 476.965C301.427 474.287 301.738 471.555 301.767 468.813C301.767 466.735 301.518 464.644 300.809 462.961C300.1 461.278 298.939 459.985 297.021 459.601C293.171 458.851 292.205 461.895 293.171 465.804Z" fill="#F3AF1C"/>
<path d="M287.668 475.666C283.131 475.298 277.703 476.694 274.175 478.815C270.647 480.937 269.135 483.761 272.855 486.031C274.716 487.162 276.591 487.113 278.337 486.364C280.082 485.615 281.727 484.127 283.109 482.541C284.891 480.435 286.421 478.127 287.668 475.666Z" fill="#F3AF1C"/>
<path d="M275.856 458.781C276.583 462.696 279.273 467.585 282.844 470.363C283.597 467.713 284.078 464.994 284.281 462.247C284.522 458.072 283.894 453.705 280.087 452.799C278.169 452.36 276.959 452.82 276.286 453.935C275.612 455.05 275.501 456.814 275.856 458.781Z" fill="#F3AF1C"/>
<path d="M269.787 468.275C265.355 467.463 259.776 468.659 256.118 470.599C254.281 471.584 252.969 472.69 252.531 473.935C252.093 475.179 252.561 476.494 254.371 477.693C257.988 480.128 261.903 477.79 264.83 474.822C266.734 472.842 268.398 470.644 269.787 468.275Z" fill="#F3AF1C"/>
<path d="M259.081 450.61C259.383 452.856 260.054 455.036 261.067 457.063C262.109 459.175 263.557 461.062 265.328 462.615C266.239 460.026 266.882 457.35 267.246 454.63C267.733 450.502 267.33 446.194 263.656 444.928C259.982 443.662 258.624 446.606 259.081 450.61Z" fill="#F3AF1C"/>
<path d="M245.264 459.506C242.984 459.724 240.751 460.291 238.643 461.186C234.893 462.847 233.032 465.458 236.441 468.196C239.834 470.977 243.952 468.772 247.063 465.983C249.09 464.113 250.892 462.013 252.431 459.725C250.22 459.208 247.696 459.208 245.264 459.506Z" fill="#F3AF1C"/>
<path d="M242.818 441.498C243.048 445.477 245.101 450.675 248.291 453.889C249.368 451.349 250.184 448.707 250.726 446.002C251.487 441.887 251.411 437.466 247.75 436.086C244.09 434.707 242.577 437.512 242.818 441.498Z" fill="#F3AF1C"/>
<path d="M241.703 451.987C230.61 453.93 223.719 449.503 225.199 442.041C226.679 434.579 234.32 442.804 241.703 451.987Z" fill="#F3AF1C"/>
<path d="M493.67 425.316C488.243 388.233 471.065 349.311 440.39 328.088C440.295 328.023 440.182 327.993 440.068 328.002C440.046 328 440.024 328 440.003 328.002H439.938C439.823 328.021 439.718 328.077 439.637 328.161C411.194 358.518 402.225 405.205 405.896 445.691C409.373 484.048 426.085 523.071 459.467 542.28C459.534 542.335 459.618 542.366 459.705 542.369C459.731 542.372 459.757 542.372 459.783 542.369C459.811 542.367 459.838 542.361 459.864 542.353C459.95 542.328 460.026 542.278 460.083 542.21C491.887 513.244 499.706 466.481 493.67 425.316Z" fill="#AA9025"/>
<path d="M459.861 530.1C459.361 525.286 458.885 520.47 458.4 515.655C464.307 507.635 470.362 499.713 476.111 491.575C476.972 490.355 475.216 488.915 474.347 490.144C469.06 497.63 463.525 504.938 458.062 512.302C457.786 509.552 457.516 506.8 457.251 504.048C457.292 503.838 457.27 503.62 457.188 503.423C456.609 497.514 456.039 491.603 455.478 485.69C465.649 471.849 476.119 458.185 486.027 444.154C486.89 442.934 485.132 441.495 484.263 442.723C474.821 456.108 464.872 469.14 455.146 482.319C454.581 476.351 454.026 470.379 453.482 464.406C453.555 464.235 453.585 464.049 453.568 463.864C453.551 463.679 453.488 463.502 453.384 463.348C452.733 456.265 452.089 449.18 451.453 442.095C461.368 428.611 471.563 415.31 481.214 401.639C482.077 400.416 480.318 398.979 479.453 400.208C470.273 413.216 460.606 425.886 451.144 438.705C450.52 431.703 449.897 424.702 449.275 417.702C449.309 417.513 449.292 417.317 449.226 417.137C448.364 407.431 447.503 397.725 446.645 388.019C451.861 380.941 457.196 373.95 462.283 366.764C463.143 365.541 461.387 364.105 460.519 365.333C455.919 371.851 451.093 378.214 446.342 384.626C445.021 369.746 443.68 354.865 442.319 339.985C442.183 338.507 439.902 338.775 440.038 340.255C440.952 350.154 441.85 360.054 442.73 369.957C439.213 366.854 435.695 363.775 432.27 360.582C431.188 359.581 429.74 361.394 430.809 362.392C434.808 366.12 438.953 369.697 443.03 373.331C443.463 378.181 443.896 383.034 444.329 387.889C444.329 387.906 444.329 387.922 444.329 387.938C445.121 396.866 445.912 405.795 446.702 414.723C437.822 406.828 428.826 399.05 420.136 390.947C419.053 389.946 417.603 391.758 418.672 392.757C427.936 401.396 437.554 409.661 447.002 418.1C448.265 432.409 449.549 446.716 450.855 461.021C438.493 450.009 425.939 439.184 413.84 427.883C412.757 426.882 411.31 428.695 412.379 429.693C425.057 441.535 438.236 452.85 451.177 464.408C452.299 476.621 453.453 488.83 454.64 501.034C444.386 491.908 433.991 482.928 423.95 473.564C422.868 472.563 421.421 474.376 422.487 475.374C433.112 485.287 444.142 494.765 454.964 504.451C455.814 513.098 456.684 521.741 457.575 530.381C457.732 531.845 460.016 531.577 459.861 530.1Z" fill="#877112"/>
<path d="M337.599 423.776C329.399 393.068 329.642 356.756 346.257 329.376C346.308 329.293 346.385 329.229 346.476 329.195L346.528 329.173H346.582C346.672 329.152 346.766 329.158 346.852 329.192C379 342.628 401.559 375.663 412.27 408.381C422.416 439.382 422.552 475.612 403.174 502.381C403.14 502.447 403.086 502.501 403.02 502.535C403.001 502.546 402.98 502.554 402.958 502.56C402.936 502.567 402.913 502.574 402.89 502.578C402.816 502.588 402.741 502.576 402.674 502.543C368.4 491.367 346.709 457.864 337.599 423.776Z" fill="#EA9200"/>
<path d="M350.002 435.304C349.382 434.936 349.888 433.93 350.51 434.303C362.572 441.519 374.942 448.226 387.16 455.169C385.477 449.969 383.789 444.771 382.095 439.577C381.995 439.51 381.921 439.411 381.883 439.297C381.845 439.183 381.847 439.059 381.887 438.946C379.986 433.122 378.077 427.299 376.162 421.476C363.946 414.515 351.56 407.819 339.493 400.603C338.874 400.235 339.38 399.231 340.002 399.604C351.733 406.617 363.76 413.132 375.64 419.896C373.656 413.879 371.672 407.863 369.687 401.847C369.662 401.799 369.645 401.747 369.636 401.693C367.01 393.73 364.385 385.766 361.763 377.803C355.326 374.137 348.811 370.601 342.448 366.805C341.828 366.437 342.334 365.433 342.956 365.804C348.982 369.397 355.131 372.762 361.243 376.22C359.009 369.424 356.78 362.626 354.558 355.826C352.754 350.277 350.945 344.727 349.131 339.176C348.906 338.488 349.975 338.142 350.197 338.829C352.913 347.173 355.64 355.514 358.378 363.853C360.188 359.876 362.047 355.915 363.765 351.897C364.052 351.229 365.05 351.743 364.766 352.406C362.894 356.783 360.854 361.088 358.892 365.425C360.155 369.314 361.426 373.202 362.707 377.089C362.758 377.145 362.796 377.212 362.819 377.284C362.843 377.356 362.851 377.433 362.842 377.508C365.312 385.035 367.78 392.562 370.248 400.089C374.614 390.446 379.157 380.879 383.305 371.139C383.589 370.474 384.59 370.985 384.306 371.648C380.004 381.745 375.274 391.669 370.778 401.661C374.699 413.625 378.61 425.591 382.512 437.558C388.537 424.233 394.83 411.011 400.558 397.554C400.842 396.885 401.84 397.399 401.559 398.062C395.677 411.88 389.197 425.445 383.026 439.133C386.366 449.385 389.693 459.645 393.007 469.911C398.026 458.819 403.258 447.804 408.034 436.6C408.304 435.935 409.316 436.449 409.035 437.112C404.1 448.678 398.672 460.036 393.505 471.497C394.452 474.441 395.399 477.381 396.354 480.325C396.417 480.414 396.451 480.52 396.451 480.628C396.884 481.981 397.325 483.32 397.755 484.668C398.599 487.303 399.435 489.94 400.263 492.579C400.48 493.269 399.414 493.618 399.181 492.925C397.942 488.957 396.692 484.997 395.431 481.045C388.126 476.892 380.737 472.882 373.516 468.575C372.899 468.204 373.402 467.203 374.025 467.574C380.91 471.686 387.953 475.525 394.93 479.478C394.113 476.91 393.295 474.342 392.476 471.776C392.429 471.72 392.394 471.656 392.372 471.587C392.35 471.518 392.342 471.445 392.349 471.372C390.791 466.502 389.224 461.627 387.65 456.746C375.123 449.595 362.396 442.72 350.002 435.304Z" fill="#F3AF1C"/>
<path d="M318.823 495.874C292.138 469.763 270.634 432.932 271.021 395.316C271.021 395.201 271.061 395.089 271.134 395C271.145 394.981 271.158 394.964 271.172 394.948L271.218 394.902C271.298 394.82 271.403 394.768 271.516 394.753C312.045 389.072 354.626 408.928 385.047 435.57C413.867 460.81 435.712 497.33 432.167 535.984C432.171 536.072 432.148 536.158 432.102 536.233C432.088 536.256 432.071 536.278 432.054 536.298C432.036 536.318 432.017 536.337 431.997 536.355C431.928 536.41 431.844 536.443 431.756 536.45C390.431 545.711 348.443 524.859 318.823 495.874Z" fill="#DA7C1E"/>
<path d="M279.803 403.487C279.162 402.927 280.033 401.934 280.674 402.497C288.416 409.299 296.165 416.092 303.923 422.878C303.369 417.772 302.873 412.662 302.208 407.57C302.097 406.726 303.415 406.647 303.526 407.486C304.248 413.03 304.77 418.603 305.39 424.16C308.997 427.322 312.61 430.488 316.228 433.657C316.313 433.683 316.392 433.727 316.459 433.786C316.526 433.845 316.58 433.917 316.618 433.998L337.627 452.377C336.26 440.023 335.118 427.631 333.476 415.31C333.365 414.466 334.68 414.388 334.791 415.224C336.493 428.002 337.656 440.851 339.088 453.662C350.218 463.402 361.338 473.146 372.447 482.895C370.553 465.823 368.99 448.697 366.717 431.671C366.603 430.827 367.921 430.746 368.032 431.584C370.367 449.068 371.947 466.654 373.911 484.181C383.429 492.537 392.933 500.913 402.422 509.307C400.853 495.089 399.538 480.828 397.65 466.649C397.536 465.807 398.854 465.726 398.965 466.565C400.915 481.202 402.244 495.925 403.889 510.598C406.607 513.004 409.329 515.408 412.054 517.811C412.172 517.862 412.272 517.949 412.338 518.06C413.58 519.161 414.83 520.257 416.075 521.358C418.504 523.522 420.928 525.687 423.347 527.851C423.978 528.422 423.109 529.412 422.476 528.844C418.849 525.581 415.213 522.329 411.57 519.088C401.705 519.266 391.835 519.629 381.968 519.613C381.121 519.613 381.029 518.292 381.882 518.295C391.297 518.325 400.718 517.987 410.133 517.8C407.768 515.692 405.405 513.587 403.042 511.485C402.96 511.458 402.885 511.415 402.821 511.358C402.756 511.3 402.705 511.231 402.668 511.152C398.172 507.159 393.669 503.172 389.16 499.191C372.198 499.483 355.224 500.162 338.257 500.097C337.413 500.097 337.321 498.777 338.17 498.78C354.674 498.845 371.195 498.209 387.699 497.906C382.886 493.658 378.067 489.42 373.24 485.19C373.098 485.182 372.964 485.127 372.857 485.033C372.751 484.939 372.679 484.812 372.653 484.673C367.242 479.931 361.825 475.192 356.403 470.455C339.899 470.726 323.368 471.397 306.853 471.335C306.009 471.335 305.917 470.017 306.77 470.02C322.822 470.076 338.882 469.465 354.929 469.17C349.323 464.273 343.716 459.38 338.108 454.492C338.054 454.458 338.006 454.416 337.965 454.368C330.544 447.894 323.125 441.419 315.706 434.942C307.005 435.099 298.301 435.426 289.603 435.405C288.756 435.405 288.664 434.087 289.516 434.087C297.755 434.109 305.993 433.816 314.231 433.654C307.9 428.129 301.577 422.598 295.26 417.061C290.107 412.537 284.954 408.012 279.803 403.487Z" fill="#F3AF1C"/>
<path d="M55.9492 492.433C125.967 501.139 198.803 485.398 258.959 448.554L259.297 449.095C198.998 486.026 126.034 501.794 55.8708 493.071L55.9492 492.433Z" fill="#F3AF1C"/>
<path d="M63.9739 510.379C59.6152 510.582 57.4805 506.564 56.5309 502.508C55.9398 499.829 55.6673 497.089 55.7192 494.345C59.9237 495.953 64.0578 499.851 66.1843 503.409C68.3109 506.967 68.3245 510.176 63.9739 510.379Z" fill="#F3AF1C"/>
<path d="M74.044 484.819C72.6246 486.586 70.9168 488.101 68.9927 489.3C66.9928 490.538 64.7784 491.391 62.4642 491.813C63.0366 489.127 63.8815 486.506 64.9858 483.991C65.8489 482.097 66.9365 480.274 68.2704 479.048C68.8968 478.45 69.6481 477.998 70.47 477.725C71.3165 477.433 72.229 477.389 73.0998 477.598C76.8957 478.458 76.5278 481.637 74.044 484.819Z" fill="#F3AF1C"/>
<path d="M92.6909 485.493C90.4209 488.764 85.954 492.197 81.5602 493.228C81.5602 493.228 81.6928 492.211 82.0174 490.709C82.4074 488.856 82.9328 487.034 83.5894 485.257C85.0856 481.342 87.4556 477.601 91.2975 478.31C95.1395 479.018 94.9663 482.206 92.6909 485.493Z" fill="#F3AF1C"/>
<path d="M111.351 485C109.29 488.542 105.036 492.07 100.71 493.355C100.948 490.616 101.462 487.909 102.247 485.274C103.5 481.272 105.642 477.536 109.52 477.947C113.397 478.358 113.426 481.526 111.351 485Z" fill="#F3AF1C"/>
<path d="M129.952 483.366C128.867 485.341 127.46 487.121 125.791 488.634C124.024 490.257 121.962 491.702 119.839 492.389C119.909 489.655 120.258 486.935 120.883 484.273C121.892 480.214 123.789 476.197 127.69 476.426C131.592 476.656 131.819 479.83 129.952 483.366Z" fill="#F3AF1C"/>
<path d="M132.939 494.264C135.296 494.675 137.577 495.444 139.703 496.542C141.756 497.582 143.639 498.927 145.29 500.53C148.201 503.45 149.002 506.558 144.846 507.835C140.69 509.112 137.649 505.779 135.731 502.035C134.502 499.562 133.565 496.954 132.939 494.264Z" fill="#F3AF1C"/>
<path d="M148.428 480.642C147.984 481.632 147.45 482.579 146.832 483.472C146.158 484.419 145.409 485.312 144.592 486.139C142.954 487.836 141.014 489.212 138.872 490.198C138.773 487.449 138.954 484.698 139.413 481.986C140.176 477.879 141.848 473.832 145.755 473.853C149.659 473.764 150.068 476.938 148.428 480.642Z" fill="#F3AF1C"/>
<path d="M152.054 491.31C156.55 491.597 161.694 494.21 164.77 496.867C167.846 499.524 168.828 502.603 164.77 504.223C160.676 505.682 157.435 502.462 155.3 498.864C153.927 496.481 152.837 493.946 152.054 491.31Z" fill="#F3AF1C"/>
<path d="M166.699 476.765C165.859 478.86 164.678 480.802 163.204 482.511C162.425 483.433 161.572 484.289 160.652 485.071C159.749 485.792 158.771 486.415 157.736 486.93C157.473 484.202 157.493 481.455 157.795 478.732C158.323 474.66 159.713 470.385 163.615 470.133C167.516 469.882 168.125 473.007 166.699 476.765Z" fill="#F3AF1C"/>
<path d="M170.968 487.222C172.147 487.26 173.32 487.418 174.467 487.692C175.653 487.943 176.819 488.278 177.957 488.696C180.118 489.476 182.149 490.579 183.98 491.967C187.226 494.508 188.384 497.495 184.415 499.272C180.446 501.05 177.032 498.117 174.675 494.592C173.158 492.287 171.915 489.814 170.968 487.222Z" fill="#F3AF1C"/>
<path d="M184.724 471.87C183.541 475.718 180.259 480.19 176.38 482.514C175.954 479.794 175.805 477.037 175.936 474.286C176.206 470.122 177.359 465.869 181.255 465.442C185.127 464.914 185.901 467.972 184.724 471.87Z" fill="#F3AF1C"/>
<path d="M189.604 482.019C194.104 481.77 199.496 483.661 202.894 486.018C206.252 488.288 207.624 491.261 203.765 493.279C199.877 495.233 196.276 492.433 193.73 489.124C192.081 486.926 190.696 484.541 189.604 482.019Z" fill="#F3AF1C"/>
<path d="M202.378 465.804C201.422 469.692 198.498 474.576 194.71 476.965C194.122 474.287 193.811 471.555 193.782 468.813C193.782 466.735 194.031 464.644 194.74 462.961C195.449 461.278 196.609 459.985 198.527 459.601C202.378 458.851 203.343 461.895 202.378 465.804Z" fill="#F3AF1C"/>
<path d="M207.881 475.666C212.418 475.298 217.845 476.694 221.373 478.815C224.901 480.937 226.414 483.761 222.694 486.031C220.832 487.162 218.957 487.113 217.212 486.364C215.467 485.615 213.822 484.127 212.44 482.541C210.658 480.435 209.128 478.127 207.881 475.666Z" fill="#F3AF1C"/>
<path d="M219.693 458.781C218.965 462.696 216.276 467.585 212.705 470.363C211.952 467.713 211.471 464.994 211.268 462.247C211.027 458.072 211.655 453.705 215.462 452.799C217.38 452.36 218.589 452.82 219.263 453.935C219.937 455.05 220.048 456.814 219.693 458.781Z" fill="#F3AF1C"/>
<path d="M225.762 468.275C230.193 467.463 235.772 468.659 239.43 470.599C241.267 471.584 242.58 472.69 243.018 473.935C243.456 475.179 242.988 476.494 241.178 477.693C237.561 480.128 233.646 477.79 230.718 474.822C228.815 472.842 227.151 470.644 225.762 468.275Z" fill="#F3AF1C"/>
<path d="M236.468 450.61C236.166 452.856 235.495 455.036 234.482 457.063C233.44 459.175 231.992 461.062 230.221 462.615C229.31 460.026 228.667 457.35 228.302 454.63C227.815 450.502 228.218 446.194 231.893 444.928C235.567 443.662 236.925 446.606 236.468 450.61Z" fill="#F3AF1C"/>
<path d="M250.285 459.506C252.565 459.724 254.797 460.291 256.905 461.186C260.655 462.847 262.517 465.458 259.108 468.196C255.715 470.977 251.597 468.772 248.486 465.983C246.458 464.113 244.657 462.013 243.118 459.725C245.328 459.208 247.853 459.208 250.285 459.506Z" fill="#F3AF1C"/>
<path d="M252.731 441.498C252.501 445.477 250.447 450.675 247.257 453.889C246.181 451.349 245.365 448.707 244.822 446.002C244.062 441.887 244.138 437.466 247.799 436.086C251.459 434.707 252.972 437.512 252.731 441.498Z" fill="#F3AF1C"/>
<path d="M253.846 451.987C264.938 453.93 271.829 449.503 270.349 442.041C268.87 434.579 261.229 442.804 253.846 451.987Z" fill="#F3AF1C"/>
<path d="M1.87835 425.316C7.30572 388.233 24.4834 349.311 55.1592 328.088C55.2534 328.023 55.3671 327.993 55.4811 328.002C55.5028 328 55.5244 328 55.5461 328.002H55.611C55.7257 328.021 55.831 328.077 55.9113 328.161C84.355 358.518 93.324 405.205 89.6525 445.691C86.1758 484.048 69.4635 523.071 36.0822 542.28C36.0145 542.335 35.931 542.366 35.8441 542.369C35.818 542.372 35.7917 542.372 35.7656 542.369C35.7381 542.367 35.711 542.361 35.6845 542.353C35.5989 542.328 35.5226 542.278 35.4653 542.21C3.66135 513.244 -4.15778 466.481 1.87835 425.316Z" fill="#AA9025"/>
<path d="M35.6872 530.1C36.1878 525.286 36.6639 520.47 37.1482 515.655C31.242 507.635 25.1869 499.713 19.4376 491.575C18.5772 490.355 20.3331 488.915 21.2016 490.144C26.4883 497.63 32.0239 504.938 37.4864 512.302C37.7624 509.552 38.033 506.8 38.2981 504.048C38.2566 503.838 38.2783 503.62 38.3603 503.423C38.9393 497.514 39.5093 491.603 40.0702 485.69C29.9 471.849 19.4295 458.185 9.52165 444.154C8.65858 442.934 10.4172 441.495 11.2857 442.723C20.7281 456.108 30.6765 469.14 40.403 482.319C40.9676 476.351 41.5222 470.379 42.067 464.406C41.9934 464.235 41.9638 464.049 41.9808 463.864C41.9978 463.679 42.0609 463.502 42.1644 463.348C42.8155 456.265 43.4594 449.18 44.0961 442.095C34.1802 428.611 23.9856 415.31 14.3349 401.639C13.4718 400.416 15.2304 398.979 16.0962 400.208C25.2762 413.216 34.9432 425.886 44.4046 438.705C45.0287 431.703 45.6519 424.702 46.2741 417.702C46.2398 417.513 46.2566 417.317 46.3228 417.137C47.185 407.431 48.0454 397.725 48.9039 388.019C43.6876 380.941 38.3522 373.95 33.2657 366.764C32.4054 365.541 34.1613 364.105 35.0298 365.333C39.6292 371.851 44.456 378.214 49.207 384.626C50.5273 369.746 51.8683 354.865 53.2301 339.985C53.3654 338.507 55.6462 338.775 55.5109 340.255C54.5965 350.154 53.6991 360.054 52.8189 369.957C56.3361 366.854 59.8534 363.775 63.2786 360.582C64.3609 359.581 65.8084 361.394 64.7397 362.392C60.7408 366.12 56.5959 369.697 52.5186 373.331C52.0857 378.181 51.6528 383.034 51.2199 387.889C51.2199 387.906 51.2199 387.922 51.2199 387.938C50.4281 396.866 49.6371 405.795 48.8471 414.723C57.7268 406.828 66.7228 399.05 75.4131 390.947C76.4953 389.946 77.9455 391.758 76.8768 392.757C67.613 401.396 57.9947 409.661 48.5468 418.1C47.2842 432.409 46 446.716 44.6941 461.021C57.0558 450.009 69.6097 439.184 81.709 427.883C82.7912 426.882 84.2387 428.695 83.17 429.693C70.4917 441.535 57.3129 452.85 44.3721 464.408C43.2502 476.621 42.0958 488.83 40.909 501.034C51.1631 491.908 61.5579 482.928 71.5983 473.564C72.6805 472.563 74.128 474.376 73.062 475.374C62.4372 485.287 51.4066 494.765 40.5843 504.451C39.7348 513.098 38.8645 521.741 37.9734 530.381C37.8165 531.845 35.533 531.577 35.6872 530.1Z" fill="#877112"/>
<path d="M157.949 423.776C166.15 393.068 165.906 356.756 149.292 329.376C149.241 329.293 149.164 329.229 149.072 329.195L149.021 329.173H148.967C148.877 329.152 148.782 329.158 148.696 329.192C116.549 342.628 93.9897 375.663 83.2783 408.381C73.1324 439.382 72.9971 475.612 92.3744 502.381C92.4083 502.447 92.4623 502.501 92.5286 502.535C92.5482 502.546 92.5691 502.554 92.5909 502.56C92.6129 502.567 92.6355 502.574 92.6585 502.578C92.7325 502.588 92.8079 502.576 92.875 502.543C127.149 491.367 148.84 457.864 157.949 423.776Z" fill="#EA9200"/>
<path d="M145.547 435.304C146.167 434.936 145.661 433.93 145.038 434.303C132.977 441.519 120.607 448.226 108.389 455.169C110.072 449.969 111.76 444.771 113.453 439.577C113.553 439.51 113.628 439.411 113.666 439.297C113.703 439.183 113.702 439.059 113.662 438.946C115.563 433.122 117.471 427.299 119.387 421.476C131.602 414.515 143.989 407.819 156.055 400.603C156.675 400.235 156.169 399.231 155.547 399.604C143.815 406.617 131.789 413.132 119.909 419.896C121.893 413.879 123.877 407.863 125.861 401.847C125.886 401.799 125.904 401.747 125.913 401.693C128.539 393.73 131.163 385.766 133.786 377.803C140.222 374.137 146.737 370.601 153.101 366.805C153.721 366.437 153.215 365.433 152.592 365.804C146.567 369.397 140.417 372.762 134.305 376.22C136.54 369.424 138.769 362.626 140.991 355.826C142.795 350.277 144.604 344.727 146.418 339.176C146.643 338.488 145.574 338.142 145.352 338.829C142.636 347.173 139.909 355.514 137.171 363.853C135.36 359.876 133.502 355.915 131.784 351.897C131.497 351.229 130.499 351.743 130.783 352.406C132.655 356.783 134.695 361.088 136.656 365.425C135.394 369.314 134.122 373.202 132.842 377.089C132.791 377.145 132.753 377.212 132.729 377.284C132.706 377.356 132.698 377.433 132.706 377.508C130.237 385.035 127.769 392.562 125.301 400.089C120.934 390.446 116.392 380.879 112.244 371.139C111.96 370.474 110.959 370.985 111.243 371.648C115.545 381.745 120.274 391.669 124.771 401.661C120.85 413.625 116.938 425.591 113.037 437.558C107.012 424.233 100.718 411.011 94.9907 397.554C94.7066 396.885 93.7082 397.399 93.9896 398.062C99.8715 411.88 106.351 425.445 112.523 439.133C109.182 449.385 105.855 459.645 102.542 469.911C97.5231 458.819 92.2905 447.804 87.5152 436.6C87.2446 435.935 86.2327 436.449 86.5141 437.112C91.4491 448.678 96.8765 460.036 102.044 471.497C101.097 474.441 100.15 477.381 99.1951 480.325C99.1321 480.414 99.0981 480.52 99.0977 480.628C98.6648 481.981 98.2238 483.32 97.7937 484.668C96.9495 487.303 96.1135 489.94 95.2856 492.579C95.0691 493.269 96.1351 493.618 96.3678 492.925C97.607 488.957 98.8569 484.997 100.118 481.045C107.423 476.892 114.812 472.882 122.033 468.575C122.65 468.204 122.146 467.203 121.524 467.574C114.639 471.686 107.596 475.525 100.618 479.478C101.435 476.91 102.253 474.342 103.072 471.776C103.119 471.72 103.155 471.656 103.177 471.587C103.199 471.518 103.206 471.445 103.199 471.372C104.758 466.502 106.324 461.627 107.899 456.746C120.426 449.595 133.153 442.72 145.547 435.304Z" fill="#F3AF1C"/>
<path d="M176.726 495.874C203.411 469.763 224.915 432.932 224.528 395.316C224.528 395.201 224.488 395.089 224.414 395C224.403 394.981 224.391 394.964 224.376 394.948L224.33 394.902C224.251 394.82 224.146 394.768 224.033 394.753C183.503 389.072 140.923 408.928 110.502 435.57C81.6819 460.81 59.8372 497.33 63.3814 535.984C63.3782 536.072 63.4008 536.158 63.4464 536.233C63.4611 536.256 63.4774 536.278 63.4951 536.298C63.5126 536.318 63.5316 536.337 63.5519 536.355C63.6205 536.41 63.7046 536.443 63.7927 536.45C105.118 545.711 147.105 524.859 176.726 495.874Z" fill="#DA7C1E"/>
<path d="M215.746 403.487C216.387 402.927 215.516 401.934 214.874 402.497C207.133 409.299 199.383 416.092 191.625 422.878C192.18 417.772 192.675 412.662 193.341 407.57C193.452 406.726 192.134 406.647 192.023 407.486C191.301 413.03 190.779 418.603 190.159 424.16C186.552 427.322 182.939 430.488 179.321 433.657C179.235 433.683 179.157 433.727 179.09 433.786C179.023 433.845 178.968 433.917 178.931 433.998L157.922 452.377C159.288 440.023 160.43 427.631 162.073 415.31C162.183 414.466 160.869 414.388 160.758 415.224C159.056 428.002 157.892 440.851 156.461 453.662C145.33 463.402 134.211 473.146 123.101 482.895C124.995 465.823 126.559 448.697 128.832 431.671C128.946 430.827 127.628 430.746 127.517 431.584C125.182 449.068 123.602 466.654 121.638 484.181C112.12 492.537 102.616 500.913 93.1265 509.307C94.6957 495.089 96.0106 480.828 97.8991 466.649C98.0127 465.807 96.6951 465.726 96.5842 466.565C94.6335 481.202 93.305 495.925 91.6601 510.598C88.9419 513.004 86.22 515.408 83.4946 517.811C83.3764 517.862 83.2772 517.949 83.2105 518.06C81.9687 519.161 80.7187 520.257 79.4742 521.358C77.0445 523.522 74.6204 525.687 72.2016 527.851C71.5712 528.422 72.4397 529.412 73.0728 528.844C76.7 525.581 80.3354 522.329 83.9789 519.088C93.8434 519.266 103.713 519.629 113.581 519.613C114.427 519.613 114.519 518.292 113.667 518.295C104.252 518.325 94.831 517.987 85.4156 517.8C87.7803 515.692 90.144 513.587 92.5069 511.485C92.5886 511.458 92.6639 511.415 92.7281 511.358C92.7924 511.3 92.8441 511.231 92.8803 511.152C97.3769 507.159 101.88 503.172 106.389 499.191C123.35 499.483 140.325 500.162 157.292 500.097C158.136 500.097 158.228 498.777 157.378 498.78C140.874 498.845 124.354 498.209 107.85 497.906C112.662 493.658 117.482 489.42 122.309 485.19C122.45 485.182 122.585 485.127 122.692 485.033C122.798 484.939 122.87 484.812 122.896 484.673C128.307 479.931 133.724 475.192 139.146 470.455C155.649 470.726 172.181 471.397 188.695 471.335C189.539 471.335 189.631 470.017 188.779 470.02C172.727 470.076 156.667 469.465 140.62 469.17C146.226 464.273 151.833 459.38 157.441 454.492C157.494 454.458 157.543 454.416 157.584 454.368C165.004 447.894 172.424 441.419 179.843 434.942C188.544 435.099 197.248 435.426 205.946 435.405C206.793 435.405 206.885 434.087 206.033 434.087C197.794 434.109 189.556 433.816 181.317 433.654C187.648 428.129 193.972 422.598 200.289 417.061C205.442 412.537 210.594 408.012 215.746 403.487Z" fill="#F3AF1C"/>
<path d="M438 25.8608L461.431 2.42963V35.5664H494.57L471.139 59L494.57 82.4312H461.431V115.57L438 92.1392L414.569 115.57V82.4312H381.43L404.861 59L381.43 35.5664H414.569V2.42963L438 25.8608Z" fill="#F3AF1C"/>
<path d="M487.061 143.852H522.852V108.061L510.386 95.5952H474.595V131.386L487.061 143.852ZM412.692 153.692L438 179L463.308 153.692V136.059L438 110.754L412.692 136.062V153.692ZM353.148 108.061V143.852H388.939L401.405 131.386V95.5952H365.614L353.148 108.061ZM343.308 33.692L318 59L343.308 84.308H360.938L386.246 59L360.938 33.692H343.308ZM388.939 -25.852H353.148V9.93681L365.614 22.4048H401.405V-13.3864L388.939 -25.852ZM463.308 -35.692L438 -61L412.692 -35.692V-18.0616L438 7.2464L463.308 -18.0616V-35.692ZM522.852 9.93681V-25.852H487.061L474.595 -13.3864V22.4048H510.386L522.852 9.93681ZM515.062 33.6968L489.754 59L515.062 84.308H532.692L558 59L532.692 33.692L515.062 33.6968Z" fill="#6BAAB7"/>
<path d="M487.061 143.852H522.852V108.061L510.386 95.5952H474.595V131.386L487.061 143.852ZM412.692 153.692L438 179L463.308 153.692V136.059L438 110.754L412.692 136.062V153.692ZM353.148 108.061V143.852H388.939L401.405 131.386V95.5952H365.614L353.148 108.061ZM343.308 33.692L318 59L343.308 84.308H360.938L386.246 59L360.938 33.692H343.308ZM388.939 -25.852H353.148V9.93681L365.614 22.4048H401.405V-13.3864L388.939 -25.852ZM463.308 -35.692L438 -61L412.692 -35.692V-18.0616L438 7.2464L463.308 -18.0616V-35.692ZM522.852 9.93681V-25.852H487.061L474.595 -13.3864V22.4048H510.386L522.852 9.93681ZM515.062 33.6968L489.754 59L515.062 84.308H532.692L558 59L532.692 33.692L515.062 33.6968Z" fill="#BFA32B"/>
<path d="M463.308 48.5168L448.483 33.692H427.517L412.692 48.5168V69.4832L427.517 84.308H448.483L463.308 69.4832V48.5168Z" fill="white"/>
<path d="M448.798 85.0688L443.686 90.1808L456.029 102.524V85.0688H448.798Z" fill="#EAA028"/>
<path d="M427.202 85.0688H419.971V102.524L432.314 90.1808L427.202 85.0688Z" fill="#EAA028"/>
<path d="M411.931 69.7976L406.819 64.6856L394.476 77.0288H411.931V69.7976Z" fill="#EAA028"/>
<path d="M411.931 48.2024V40.9712H394.476L406.819 53.3144L411.931 48.2024Z" fill="#EAA028"/>
<path d="M427.202 32.9312L432.314 27.8168L419.971 15.4736V32.9312H427.202Z" fill="#EAA028"/>
<path d="M448.798 32.9312H456.029V15.4736L443.686 27.8168L448.798 32.9312Z" fill="#EAA028"/>
<path d="M464.069 48.2024L469.181 53.3144L481.524 40.9712H464.069V48.2024Z" fill="#EAA028"/>
<path d="M464.069 69.7976V77.0288H481.524L469.181 64.6856L464.069 69.7976Z" fill="#EAA028"/>
<path d="M451.913 53.2376L443.762 45.0872H432.238L424.087 53.2376V64.7624L432.238 72.9128H443.762L451.913 64.7624V53.2376Z" fill="#D8761D"/>
<path d="M425.191 -6.95439L438 -19.7632L450.809 -6.95439V1.25361L438 14.0624L425.191 1.25361V-6.95439ZM475.591 3.30561H493.704V21.4184L487.889 27.224H469.776V9.11121L475.591 3.30561ZM382.315 3.30561H400.43L406.234 9.11121V27.224H388.111L382.306 21.4184L382.315 3.30561ZM495.746 46.1912H503.954L516.763 59L503.954 71.8064H495.746L482.938 59L495.746 46.1912ZM372.046 46.1912H380.254L393.062 59L380.254 71.8064H372.046L359.239 59L372.046 46.1912ZM469.776 90.776H487.889L493.694 96.5792V114.68H475.582L469.776 108.889V90.776ZM388.111 90.776H406.224V108.889L400.421 114.68H382.306V96.5672L388.111 90.776ZM425.191 116.746L438 103.938L450.809 116.744V124.954L438 137.761L425.191 124.954V116.746Z" fill="#967E1A"/>
<path d="M384.269 159.042L396.998 157.986L405.252 167.734L404.652 139.51L384.269 159.042Z" fill="#F3AF1C"/>
<path d="M329.266 91.748L339.014 100.002L337.958 112.731L357.49 92.348L329.266 91.748Z" fill="#F3AF1C"/>
<path d="M337.958 5.26882L339.014 17.9984L329.266 26.252L357.49 25.652L337.958 5.26882Z" fill="#F3AF1C"/>
<path d="M491.731 159.042L479.002 157.986L470.748 167.734L471.348 139.51L491.731 159.042Z" fill="#F3AF1C"/>
</g>
</svg>
