<svg width="96" height="100" viewBox="0 0 96 100" fill="none" xmlns="http://www.w3.org/2000/svg">
<path d="M84.601 53.151H70.19V57.351L67.732 60.733L79.37 69.2L95.106 65.439L84.601 53.151ZM79.37 30.777L67.711 39.244L70.19 42.644V46.825H84.601L95.101 34.556L79.37 30.777ZM76.953 9.559L62.017 15.735L57.564 29.454L61.555 30.754L64.013 34.137L75.673 25.67L76.953 9.559ZM47.563 0L39.118 13.8L43.572 27.5L47.563 26.2L51.553 27.5L56.007 13.8L47.563 0ZM33.11 15.756L18.173 9.556L19.453 25.672L31.113 34.139L33.592 30.756L37.562 29.456L33.11 15.756ZM15.753 30.777L0 34.559L10.526 46.828H24.938V42.647L27.417 39.247L15.753 30.777ZM24.934 57.353V53.153H10.526L0 65.441L15.753 69.2L27.391 60.733L24.934 57.353ZM33.593 69.244L31.114 65.844L19.453 74.307L18.173 90.441L33.131 84.223L37.585 70.546L33.593 69.244ZM51.553 72.479L47.561 73.779L43.57 72.479L39.118 86.2L47.563 100L56.009 86.176L51.553 72.479ZM75.673 74.307L64.013 65.84L61.555 69.24L57.564 70.54L61.996 84.217L76.953 90.441L75.673 74.307Z" fill="#EAA028"/>
<path d="M54.694 52.318V47.681L51.969 43.929L47.558 42.496L43.148 43.929L40.423 47.681V52.318L43.148 56.069L47.558 57.502L51.969 56.069L54.694 52.318Z" fill="#BC6F00"/>
<path d="M34.384 62.687L42.761 56.598L39.565 66.455L36.369 65.412L34.384 62.687Z" fill="#FFFFFD"/>
<path d="M42.744 43.376L34.384 37.303L36.369 34.595L39.548 33.552L42.744 43.376Z" fill="#FFFFFD"/>
<path d="M47.555 58.162L50.751 68.003L47.555 69.046L44.359 68.003L47.555 58.162Z" fill="#FFFFFD"/>
<path d="M52.366 56.614L60.726 62.687L58.758 65.412L55.562 66.455L52.366 56.614Z" fill="#FFFFFD"/>
<path d="M55.327 52.527H65.672V55.891L63.704 58.6L55.327 52.527Z" fill="#FFFFFD"/>
<path d="M39.784 47.4631H29.438V44.1161L31.423 41.3911L39.784 47.4631Z" fill="#FFFFFD"/>
<path d="M65.672 44.1161V47.4631H55.327L63.687 41.3911L65.672 44.1161Z" fill="#FFFFFD"/>
<path d="M47.555 30.945L50.751 31.988L47.555 41.828L44.359 31.988L47.555 30.945Z" fill="#FFFFFD"/>
<path d="M60.726 37.303L52.366 43.376L55.562 33.552L58.758 34.595L60.726 37.303Z" fill="#FFFFFD"/>
<path d="M39.784 52.527L31.406 58.6L29.438 55.891V52.527H39.784Z" fill="#FFFFFD"/>
</svg>
