<svg width="382" height="109" viewBox="0 0 382 109" fill="none" xmlns="http://www.w3.org/2000/svg">
<path fill-rule="evenodd" clip-rule="evenodd" d="M48.2901 25.1693C53.4093 22.6097 59.6207 21.2159 65.3062 20.7231L71.6905 20.1678C78.6889 19.5647 85.6909 19.9324 92.693 19.9324H96.5361V23.7755C96.5361 40.8283 96.5361 57.8886 96.5361 74.9451V76.9053C96.5361 94.5134 82.1384 108.911 64.5229 108.911H0V19.9324H3.83938C10.8525 19.9324 17.8288 19.4727 24.8383 20.017L31.2262 20.4988C37.2905 20.9548 42.8436 22.4295 48.2901 25.1693Z" fill="#4D4C4B"/>
<path fill-rule="evenodd" clip-rule="evenodd" d="M3.83942 23.7754V67.6083V74.9451V76.9052V105.075H32.0022H36.43H64.5229C80.0202 105.075 92.6931 92.3951 92.6931 76.9052V74.9451C92.6931 57.9878 92.6931 41.4461 92.6931 23.7754C85.9631 23.7754 78.8507 23.6099 72.0252 23.9961L65.6372 24.5477C59.3854 25.3053 53.06 26.7653 48.2681 29.5308C43.0938 26.5409 37.4524 25.0552 30.9357 24.327L24.5478 23.8416C17.5825 23.518 10.4406 23.7754 3.83942 23.7754Z" fill="#5FB74E"/>
<path fill-rule="evenodd" clip-rule="evenodd" d="M11.8049 105.075H32.0021H36.4299H64.5228C71.3889 105.075 77.6959 102.586 82.5907 98.4705C76.8721 85.1761 63.6549 75.8718 48.2643 75.8718C30.4355 75.8718 15.523 88.3608 11.8049 105.075Z" fill="#89C45F"/>
<path fill-rule="evenodd" clip-rule="evenodd" d="M48.2681 105.075L64.8539 104.829C71.6243 104.829 77.7916 102.439 82.5945 98.4742C88.7765 93.3624 92.6931 85.6248 92.6931 76.9053V74.9451C92.6931 57.9879 92.6931 41.4462 92.6931 23.7755C85.9631 23.7755 78.8507 23.61 72.0251 23.9961L65.6372 24.5478C59.3854 25.3054 53.0599 26.7653 48.2681 29.5309V105.075Z" fill="#4A9E4B"/>
<path fill-rule="evenodd" clip-rule="evenodd" d="M48.2681 105.075H64.6259C71.4919 105.075 77.6959 102.586 82.5945 98.4741C76.9384 85.3268 63.4343 76.0814 48.2681 75.8792V105.075Z" fill="#5FB74E"/>
<path fill-rule="evenodd" clip-rule="evenodd" d="M72.0251 21.3336C70.8042 9.34469 60.6688 0 48.3673 0C36.0695 0 25.9415 9.26379 24.5477 21.1865L30.9357 21.6719C32.0647 13.0627 39.4014 6.40264 48.3416 6.40264C57.2781 6.40264 64.681 13.173 65.6372 21.8852L72.0251 21.3336Z" fill="#4D4C4B"/>
<path fill-rule="evenodd" clip-rule="evenodd" d="M58.6571 79.6193C55.8732 82.565 53.093 85.507 50.3127 88.4564L48.2643 90.6262L46.2196 88.4564C43.4393 85.5144 40.6591 82.565 37.8752 79.6193L36.4373 78.0894L37.489 76.2764C39.7213 72.4259 43.8954 70.3555 48.2643 70.3555C52.6406 70.3555 56.811 72.4259 59.0433 76.2764L60.0987 78.0894L58.6571 79.6193Z" fill="#4D4C4B"/>
<path fill-rule="evenodd" clip-rule="evenodd" d="M56.6087 77.6886C53.8322 80.6343 51.0446 83.5763 48.2643 86.5257C45.4841 83.5763 42.7038 80.6343 39.9199 77.6886C41.6778 74.6619 44.9766 73.1652 48.2643 73.1688C51.5557 73.1652 54.8508 74.6619 56.6087 77.6886Z" fill="#FDF8B4"/>
<path fill-rule="evenodd" clip-rule="evenodd" d="M56.6087 77.6886C53.8322 80.6343 51.0446 83.5763 48.2643 86.5257V73.1688C51.5558 73.1652 54.8509 74.6619 56.6087 77.6886Z" fill="#FCD066"/>
<path fill-rule="evenodd" clip-rule="evenodd" d="M27.4162 34.856C39.8795 34.856 49.9891 44.9693 49.9891 57.4252C49.9891 69.8884 39.8795 79.9981 27.4162 79.9981C14.9529 79.9981 4.84698 69.8884 4.84698 57.4252C4.84698 44.9693 14.9529 34.856 27.4162 34.856Z" fill="#4D4C4B"/>
<path fill-rule="evenodd" clip-rule="evenodd" d="M27.4162 38.6954C37.7612 38.6954 46.1498 47.0839 46.1498 57.4252C46.1498 67.7702 37.7612 76.1587 27.4162 76.1587C17.0676 76.1587 8.6864 67.7702 8.6864 57.4252C8.6864 47.0839 17.0676 38.6954 27.4162 38.6954Z" fill="#EEEFEE"/>
<path fill-rule="evenodd" clip-rule="evenodd" d="M27.4162 38.6954C35.9518 38.6954 43.1599 44.4103 45.4142 52.2215C43.1599 60.0289 35.9518 65.7439 27.4162 65.7439C18.8769 65.7439 11.6799 60.0289 9.42188 52.2215C11.6799 44.4103 18.8769 38.6954 27.4162 38.6954Z" fill="#FEFEFE"/>
<path fill-rule="evenodd" clip-rule="evenodd" d="M69.1162 34.856C81.5794 34.856 91.6854 44.9693 91.6854 57.4252C91.6854 69.8884 81.5794 79.9981 69.1162 79.9981C56.6529 79.9981 46.5433 69.8958 46.5433 57.4252C46.5433 44.9693 56.6529 34.856 69.1162 34.856Z" fill="#4D4C4B"/>
<path fill-rule="evenodd" clip-rule="evenodd" d="M69.1161 38.6954C79.4574 38.6954 87.846 47.0839 87.846 57.4252C87.846 67.7702 79.4574 76.1587 69.1161 76.1587C58.7711 76.1587 50.3863 67.7702 50.3863 57.4252C50.3863 47.0839 58.7711 38.6954 69.1161 38.6954Z" fill="#EEEFEE"/>
<path fill-rule="evenodd" clip-rule="evenodd" d="M69.1162 38.6954C77.6518 38.6954 84.8562 44.4103 87.1105 52.2215C84.8562 60.0289 77.6518 65.7439 69.1162 65.7439C60.5769 65.7439 53.3725 60.0289 51.1145 52.2215C53.3725 44.4103 60.5769 38.6954 69.1162 38.6954Z" fill="#FEFEFE"/>
<path fill-rule="evenodd" clip-rule="evenodd" d="M29.7698 45.7783C36.452 45.7783 41.869 51.1954 41.869 57.8665C41.869 64.5523 36.452 69.9693 29.7698 69.9693C23.0877 69.9693 17.6707 64.5523 17.6707 57.8665C17.6707 55.6416 18.2775 53.5564 19.3292 51.7617C20.1935 53.8984 22.2823 55.3988 24.7316 55.3988C27.9494 55.3988 30.5605 52.7951 30.5605 49.5772C30.5605 48.1283 30.031 46.8044 29.1594 45.7894C29.3616 45.7783 29.5676 45.7783 29.7698 45.7783Z" fill="#4D4C4B"/>
<path fill-rule="evenodd" clip-rule="evenodd" d="M66.7589 45.7783C73.4447 45.7783 78.8581 51.1954 78.8581 57.8665C78.8581 64.5523 73.4447 69.9693 66.7552 69.9693C60.0804 69.9693 54.6634 64.5523 54.6634 57.8665C54.6634 55.6416 55.2665 53.5564 56.3146 51.7617C57.1825 53.8984 59.2751 55.3988 61.7243 55.3988C64.9385 55.3988 67.5459 52.7951 67.5459 49.5772C67.5459 48.1283 67.0237 46.8044 66.1521 45.7894C66.3544 45.7783 66.553 45.7783 66.7589 45.7783Z" fill="#4D4C4B"/>
<path fill-rule="evenodd" clip-rule="evenodd" d="M260.374 79.9436C257.54 82.8123 254.146 84.2563 250.212 84.2563C247.034 84.2563 244.331 83.6094 241.571 82.0114V75.4306C243.791 76.9285 246.578 78.361 249.327 78.361C255.065 78.361 258.482 74.4217 258.482 68.8422C258.482 63.2587 254.945 59.204 249.212 59.204C246.644 59.204 244.571 60.1243 242.945 61.9649C241.204 63.9595 240.308 66.8129 240.308 70.5826V96.5707H239.876C236.714 96.5707 234.15 94.0138 234.15 90.864V69.6084C234.15 60.5902 239.679 53.3086 249.181 53.3086C253.872 53.3086 257.683 54.9067 260.571 58.1219C263.289 61.1255 264.636 64.9299 264.636 69.5083C264.636 73.5862 263.215 77.071 260.374 79.9436ZM129.847 83.6517C123.827 83.6517 120.839 79.5662 120.839 73.8634V52.2227C120.839 49.0691 123.403 46.5161 126.565 46.5161H126.993V53.917H137.395V59.8124H126.993V74.545C126.993 77.0517 128.117 77.7564 130.515 77.7564H137.395V83.6517H129.847ZM165.599 79.8897C162.553 82.8008 158.9 84.2563 154.653 84.2563C150.449 84.2563 146.812 82.7969 143.773 79.8897C140.719 76.9709 139.198 73.2588 139.198 68.7844C139.198 60.0511 145.885 53.3086 154.653 53.3086C158.862 53.3086 162.506 54.7796 165.564 57.7061C168.638 60.6441 170.17 64.3446 170.17 68.7844C170.17 73.2588 168.645 76.9709 165.599 79.8897ZM194.375 61.0715C193.471 62.581 192.772 63.663 192.278 64.3176C191.734 65.03 191.201 65.5961 190.668 65.9888C194.946 67.3712 196.541 70.3247 196.541 74.7298V83.6517H196.108C192.946 83.6517 190.382 81.0949 190.382 77.9412V75.3344C190.382 72.4849 189.104 70.548 186.074 70.548H180.483V83.6517H180.05C176.888 83.6517 174.325 81.0949 174.325 77.9412V46.2812C174.325 43.1275 176.888 40.5707 180.05 40.5707H180.483V64.591H182.301C184.301 64.591 185.614 63.9095 186.367 62.6195L191.541 53.917L198.556 53.9093L194.375 61.0715ZM226.15 79.8897C223.108 82.8008 219.451 84.2563 215.208 84.2563C211 84.2563 207.367 82.7969 204.324 79.8897C201.274 76.9709 199.753 73.2588 199.753 68.7844C199.753 60.0511 206.44 53.3086 215.208 53.3086C219.417 53.3086 223.061 54.7796 226.119 57.7061C229.189 60.6441 230.725 64.3446 230.725 68.7844C230.725 73.2588 229.2 76.9709 226.15 79.8897ZM221.706 61.8648C220.011 60.0935 217.853 59.204 215.208 59.204C209.54 59.204 206.15 63.3242 206.15 68.7844C206.15 74.1676 209.625 78.361 215.208 78.361C220.795 78.361 224.262 74.1676 224.262 68.7844C224.262 65.9234 223.401 63.6322 221.706 61.8648ZM161.151 61.8648C159.456 60.0935 157.302 59.204 154.653 59.204C148.989 59.204 145.599 63.3242 145.599 68.7844C145.599 74.1676 149.07 78.361 154.653 78.361C160.236 78.361 163.711 74.1676 163.711 68.7844C163.711 65.9234 162.85 63.6322 161.151 61.8648ZM327.025 79.7241C324.199 82.7468 320.562 84.2563 316.153 84.2563C311.5 84.2563 307.709 82.6544 304.825 79.443C302.11 76.401 300.759 72.5927 300.759 68.0566C300.759 60.0203 306.979 53.3086 315.157 53.3086C318.315 53.3086 321.056 53.9709 323.824 55.4881V62.1343C321.601 60.6326 318.817 59.204 316.068 59.204C310.33 59.204 306.917 63.1393 306.917 68.7228C306.917 74.2292 310.531 78.361 316.184 78.361C318.743 78.361 320.855 77.4021 322.539 75.4768C324.214 73.5592 325.087 70.7444 325.087 66.963V46.2812C325.087 43.1275 327.651 40.5707 330.813 40.5707H331.241V67.9334C331.241 72.7544 329.847 76.6975 327.025 79.7241ZM344.407 50.386C343.758 51.1099 342.832 51.4411 341.701 51.4411C339.589 51.4411 338.079 49.8854 338.079 47.7945C338.079 45.6535 339.565 44.2095 341.701 44.2095C343.762 44.2095 345.33 45.7344 345.33 47.7945C345.33 48.8149 345.029 49.689 344.407 50.386ZM375.681 66.963C375.681 64.5448 374.766 62.6272 372.916 61.1755C371.256 59.8701 369.179 59.204 366.658 59.204C361.086 59.204 357.511 63.5475 357.511 68.9038C357.511 74.0598 361.299 78.361 366.6 78.361C370.283 78.361 372.256 76.2123 374.356 73.5399V81.2528C373.287 82.0499 372.055 82.924 370.797 83.4361C369.469 83.9868 367.889 84.2563 366.055 84.2563C357.198 84.2563 351.353 76.9362 351.353 68.4802C351.353 64.1367 352.708 60.5478 355.43 57.7446C358.318 54.7796 362.11 53.3086 366.747 53.3086C375.546 53.3086 381.839 58.3453 381.839 67.4482V83.6517H381.407C378.244 83.6517 375.681 81.0949 375.681 77.9412V66.963ZM291.419 65.2264C290.64 62.8236 289.663 61.6453 287.42 60.3977C282.088 57.4211 276.837 59.951 274.393 65.2033L291.419 65.2264ZM286.721 84.1677C282.79 84.9995 278.929 84.3564 275.169 82.2617C271.497 80.2131 269.034 77.1711 267.802 73.1549C265.312 65.0262 270.416 55.9694 278.624 53.7746C282.694 52.6887 286.597 53.1816 290.304 55.2494C296.462 58.6803 298.705 63.9903 298.315 70.8329L273.512 70.779C273.879 73.5707 275.613 75.7541 278.053 77.1133C280.524 78.4919 282.798 78.8192 284.906 78.1684C287.246 77.433 289.145 75.5307 290.69 73.7556L295.744 77.4253C293.682 81.1065 290.875 83.2821 286.721 84.1677ZM338.627 53.917H344.782V83.6517H344.349C341.191 83.6517 338.627 81.0949 338.627 77.9412V53.917Z" fill="#3CAF41"/>
<path d="M124.055 32.7387C123.655 32.7387 123.343 32.6267 123.119 32.4027C122.911 32.1787 122.807 31.8667 122.807 31.4667V16.7307C122.807 16.3147 122.911 16.0027 123.119 15.7947C123.343 15.5867 123.655 15.4827 124.055 15.4827C124.455 15.4827 124.759 15.5867 124.967 15.7947C125.191 16.0027 125.303 16.3147 125.303 16.7307V23.2587H125.351L132.719 16.1307C132.959 15.9067 133.183 15.7467 133.391 15.6507C133.615 15.5387 133.863 15.4827 134.135 15.4827C134.503 15.4827 134.767 15.5787 134.927 15.7707C135.103 15.9467 135.175 16.1627 135.143 16.4187C135.111 16.6747 134.975 16.9227 134.735 17.1627L127.079 24.4587L127.127 23.2347L135.095 30.9147C135.383 31.1867 135.535 31.4667 135.551 31.7547C135.567 32.0427 135.479 32.2827 135.287 32.4747C135.095 32.6507 134.823 32.7387 134.471 32.7387C134.151 32.7387 133.895 32.6747 133.703 32.5467C133.511 32.4187 133.287 32.2347 133.031 31.9947L125.351 24.6747H125.303V31.4667C125.303 31.8667 125.199 32.1787 124.991 32.4027C124.783 32.6267 124.471 32.7387 124.055 32.7387ZM141.906 32.7867C140.962 32.7867 140.17 32.6107 139.53 32.2587C138.906 31.9067 138.434 31.3867 138.114 30.6987C137.81 29.9947 137.658 29.1147 137.658 28.0587V21.9147C137.658 21.4987 137.762 21.1947 137.97 21.0027C138.178 20.7947 138.474 20.6907 138.858 20.6907C139.242 20.6907 139.538 20.7947 139.746 21.0027C139.97 21.1947 140.082 21.4987 140.082 21.9147V28.0827C140.082 29.0267 140.274 29.7227 140.658 30.1707C141.042 30.6187 141.65 30.8427 142.482 30.8427C143.394 30.8427 144.13 30.5387 144.69 29.9307C145.266 29.3067 145.554 28.4907 145.554 27.4827V21.9147C145.554 21.4987 145.658 21.1947 145.866 21.0027C146.074 20.7947 146.378 20.6907 146.778 20.6907C147.162 20.6907 147.458 20.7947 147.666 21.0027C147.874 21.1947 147.978 21.4987 147.978 21.9147V31.5147C147.978 32.3307 147.586 32.7387 146.802 32.7387C146.434 32.7387 146.146 32.6347 145.938 32.4267C145.73 32.2027 145.626 31.8987 145.626 31.5147V29.4747L145.938 30.0027C145.618 30.8987 145.106 31.5867 144.402 32.0667C143.698 32.5467 142.866 32.7867 141.906 32.7867ZM152.595 32.7387C152.211 32.7387 151.915 32.6347 151.707 32.4267C151.499 32.2027 151.395 31.8987 151.395 31.5147V21.9147C151.395 21.5147 151.499 21.2107 151.707 21.0027C151.915 20.7947 152.203 20.6907 152.571 20.6907C152.955 20.6907 153.243 20.7947 153.435 21.0027C153.643 21.2107 153.747 21.5147 153.747 21.9147V23.7867L153.483 23.3547C153.835 22.4587 154.387 21.7867 155.139 21.3387C155.891 20.8747 156.755 20.6427 157.731 20.6427C158.659 20.6427 159.427 20.8187 160.035 21.1707C160.659 21.5067 161.123 22.0267 161.427 22.7307C161.731 23.4187 161.883 24.2907 161.883 25.3467V31.5147C161.883 31.8987 161.779 32.2027 161.571 32.4267C161.363 32.6347 161.067 32.7387 160.683 32.7387C160.283 32.7387 159.979 32.6347 159.771 32.4267C159.563 32.2027 159.459 31.8987 159.459 31.5147V25.4907C159.459 24.4827 159.259 23.7467 158.859 23.2827C158.475 22.8187 157.867 22.5867 157.035 22.5867C156.059 22.5867 155.275 22.8907 154.683 23.4987C154.107 24.1067 153.819 24.9227 153.819 25.9467V31.5147C153.819 32.3307 153.411 32.7387 152.595 32.7387ZM163.351 37.1307C163.063 37.1467 162.831 37.0987 162.655 36.9867C162.463 36.8747 162.335 36.7307 162.271 36.5547C162.191 36.3787 162.167 36.1947 162.199 36.0027C162.215 35.8267 162.295 35.6667 162.439 35.5227C162.567 35.3947 162.743 35.3227 162.967 35.3067C163.767 35.2587 164.351 35.0427 164.719 34.6587C165.103 34.2747 165.295 33.6667 165.295 32.8347V21.9147C165.295 21.5147 165.399 21.2107 165.607 21.0027C165.831 20.7947 166.135 20.6907 166.519 20.6907C166.919 20.6907 167.215 20.7947 167.407 21.0027C167.615 21.2107 167.719 21.5147 167.719 21.9147V32.6427C167.719 33.6347 167.551 34.4507 167.215 35.0907C166.895 35.7467 166.415 36.2347 165.775 36.5547C165.135 36.8747 164.327 37.0667 163.351 37.1307ZM166.519 18.2427C166.039 18.2427 165.663 18.1227 165.391 17.8827C165.135 17.6427 165.007 17.3067 165.007 16.8747C165.007 16.4267 165.135 16.0907 165.391 15.8667C165.663 15.6267 166.039 15.5067 166.519 15.5067C166.999 15.5067 167.367 15.6267 167.623 15.8667C167.879 16.0907 168.007 16.4267 168.007 16.8747C168.007 17.3067 167.879 17.6427 167.623 17.8827C167.367 18.1227 166.999 18.2427 166.519 18.2427ZM175.305 32.7867C174.361 32.7867 173.569 32.6107 172.929 32.2587C172.305 31.9067 171.833 31.3867 171.513 30.6987C171.209 29.9947 171.057 29.1147 171.057 28.0587V21.9147C171.057 21.4987 171.161 21.1947 171.369 21.0027C171.577 20.7947 171.873 20.6907 172.257 20.6907C172.641 20.6907 172.937 20.7947 173.145 21.0027C173.369 21.1947 173.481 21.4987 173.481 21.9147V28.0827C173.481 29.0267 173.673 29.7227 174.057 30.1707C174.441 30.6187 175.049 30.8427 175.881 30.8427C176.793 30.8427 177.529 30.5387 178.089 29.9307C178.665 29.3067 178.953 28.4907 178.953 27.4827V21.9147C178.953 21.4987 179.057 21.1947 179.265 21.0027C179.473 20.7947 179.777 20.6907 180.177 20.6907C180.561 20.6907 180.857 20.7947 181.065 21.0027C181.273 21.1947 181.377 21.4987 181.377 21.9147V31.5147C181.377 32.3307 180.985 32.7387 180.201 32.7387C179.833 32.7387 179.545 32.6347 179.337 32.4267C179.129 32.2027 179.025 31.8987 179.025 31.5147V29.4747L179.337 30.0027C179.017 30.8987 178.505 31.5867 177.801 32.0667C177.097 32.5467 176.265 32.7867 175.305 32.7867ZM185.993 32.7387C185.609 32.7387 185.313 32.6347 185.105 32.4267C184.897 32.2027 184.793 31.8987 184.793 31.5147V21.9147C184.793 21.5147 184.897 21.2107 185.105 21.0027C185.313 20.7947 185.601 20.6907 185.969 20.6907C186.353 20.6907 186.641 20.7947 186.833 21.0027C187.041 21.2107 187.145 21.5147 187.145 21.9147V23.7867L186.881 23.3547C187.233 22.4587 187.785 21.7867 188.537 21.3387C189.289 20.8747 190.153 20.6427 191.129 20.6427C192.057 20.6427 192.825 20.8187 193.433 21.1707C194.057 21.5067 194.521 22.0267 194.825 22.7307C195.129 23.4187 195.281 24.2907 195.281 25.3467V31.5147C195.281 31.8987 195.177 32.2027 194.969 32.4267C194.761 32.6347 194.465 32.7387 194.081 32.7387C193.681 32.7387 193.377 32.6347 193.169 32.4267C192.961 32.2027 192.857 31.8987 192.857 31.5147V25.4907C192.857 24.4827 192.657 23.7467 192.257 23.2827C191.873 22.8187 191.265 22.5867 190.433 22.5867C189.457 22.5867 188.673 22.8907 188.081 23.4987C187.505 24.1067 187.217 24.9227 187.217 25.9467V31.5147C187.217 32.3307 186.809 32.7387 185.993 32.7387ZM203.925 37.1067C203.061 37.1067 202.221 37.0187 201.405 36.8427C200.605 36.6667 199.877 36.3787 199.221 35.9787C198.981 35.8507 198.821 35.6907 198.741 35.4987C198.661 35.3227 198.637 35.1387 198.669 34.9467C198.717 34.7547 198.805 34.5867 198.933 34.4427C199.061 34.2987 199.213 34.2027 199.389 34.1547C199.581 34.1067 199.781 34.1387 199.989 34.2507C200.693 34.6347 201.357 34.8907 201.981 35.0187C202.621 35.1627 203.213 35.2347 203.757 35.2347C204.877 35.2347 205.717 34.9467 206.277 34.3707C206.837 33.8107 207.117 32.9787 207.117 31.8747V29.4267H207.333C207.093 30.3067 206.589 31.0027 205.821 31.5147C205.053 32.0267 204.165 32.2827 203.157 32.2827C202.101 32.2827 201.181 32.0427 200.397 31.5627C199.613 31.0667 199.005 30.3867 198.573 29.5227C198.141 28.6427 197.925 27.6187 197.925 26.4507C197.925 25.5707 198.045 24.7787 198.285 24.0747C198.541 23.3707 198.893 22.7627 199.341 22.2507C199.805 21.7387 200.357 21.3467 200.997 21.0747C201.653 20.7867 202.373 20.6427 203.157 20.6427C204.181 20.6427 205.069 20.8987 205.821 21.4107C206.589 21.9227 207.085 22.6187 207.309 23.4987L207.069 23.9067V21.9147C207.069 21.5147 207.173 21.2107 207.381 21.0027C207.605 20.7947 207.901 20.6907 208.269 20.6907C208.653 20.6907 208.949 20.7947 209.157 21.0027C209.365 21.2107 209.469 21.5147 209.469 21.9147V31.5867C209.469 33.4107 208.997 34.7867 208.053 35.7147C207.109 36.6427 205.733 37.1067 203.925 37.1067ZM203.733 30.3867C204.437 30.3867 205.037 30.2267 205.533 29.9067C206.029 29.5867 206.413 29.1307 206.685 28.5387C206.957 27.9467 207.093 27.2507 207.093 26.4507C207.093 25.2507 206.789 24.2987 206.181 23.5947C205.589 22.8907 204.773 22.5387 203.733 22.5387C203.045 22.5387 202.453 22.6987 201.957 23.0187C201.461 23.3387 201.069 23.7947 200.781 24.3867C200.509 24.9627 200.373 25.6507 200.373 26.4507C200.373 27.6667 200.677 28.6267 201.285 29.3307C201.893 30.0347 202.709 30.3867 203.733 30.3867ZM214.071 32.7147C213.687 32.7147 213.391 32.6027 213.183 32.3787C212.975 32.1387 212.871 31.8107 212.871 31.3947V22.0347C212.871 21.6187 212.975 21.2987 213.183 21.0747C213.391 20.8507 213.687 20.7387 214.071 20.7387C214.455 20.7387 214.751 20.8507 214.959 21.0747C215.183 21.2987 215.295 21.6187 215.295 22.0347V31.3947C215.295 31.8107 215.191 32.1387 214.983 32.3787C214.775 32.6027 214.471 32.7147 214.071 32.7147ZM214.071 18.2427C213.591 18.2427 213.215 18.1227 212.943 17.8827C212.687 17.6427 212.559 17.3067 212.559 16.8747C212.559 16.4267 212.687 16.0907 212.943 15.8667C213.215 15.6267 213.591 15.5067 214.071 15.5067C214.551 15.5067 214.919 15.6267 215.175 15.8667C215.447 16.0907 215.583 16.4267 215.583 16.8747C215.583 17.3067 215.447 17.6427 215.175 17.8827C214.919 18.1227 214.551 18.2427 214.071 18.2427ZM230.675 32.7387C230.275 32.7387 229.963 32.6267 229.739 32.4027C229.531 32.1787 229.427 31.8667 229.427 31.4667V17.7387H224.339C224.003 17.7387 223.739 17.6507 223.547 17.4747C223.355 17.2827 223.259 17.0187 223.259 16.6827C223.259 16.3467 223.355 16.0907 223.547 15.9147C223.739 15.7387 224.003 15.6507 224.339 15.6507H236.987C237.339 15.6507 237.611 15.7387 237.803 15.9147C237.995 16.0907 238.091 16.3467 238.091 16.6827C238.091 17.0187 237.995 17.2827 237.803 17.4747C237.611 17.6507 237.339 17.7387 236.987 17.7387H231.899V31.4667C231.899 31.8667 231.795 32.1787 231.587 32.4027C231.395 32.6267 231.091 32.7387 230.675 32.7387ZM242.943 32.7867C241.759 32.7867 240.735 32.5387 239.871 32.0427C239.023 31.5467 238.359 30.8427 237.879 29.9307C237.399 29.0187 237.159 27.9467 237.159 26.7147C237.159 25.7707 237.295 24.9307 237.567 24.1947C237.839 23.4587 238.223 22.8267 238.719 22.2987C239.231 21.7547 239.839 21.3467 240.543 21.0747C241.263 20.7867 242.063 20.6427 242.943 20.6427C244.111 20.6427 245.119 20.8907 245.967 21.3867C246.831 21.8827 247.503 22.5867 247.983 23.4987C248.463 24.3947 248.703 25.4667 248.703 26.7147C248.703 27.6427 248.567 28.4827 248.295 29.2347C248.023 29.9867 247.631 30.6267 247.119 31.1547C246.623 31.6827 246.015 32.0907 245.295 32.3787C244.591 32.6507 243.807 32.7867 242.943 32.7867ZM242.943 30.9147C243.599 30.9147 244.175 30.7547 244.671 30.4347C245.167 30.1147 245.551 29.6427 245.823 29.0187C246.111 28.3947 246.255 27.6267 246.255 26.7147C246.255 25.3387 245.951 24.2987 245.343 23.5947C244.735 22.8907 243.935 22.5387 242.943 22.5387C242.271 22.5387 241.687 22.6987 241.191 23.0187C240.695 23.3227 240.303 23.7867 240.015 24.4107C239.743 25.0347 239.607 25.8027 239.607 26.7147C239.607 28.0747 239.911 29.1147 240.519 29.8347C241.127 30.5547 241.935 30.9147 242.943 30.9147ZM252.626 32.7387C252.242 32.7387 251.946 32.6347 251.738 32.4267C251.53 32.2027 251.426 31.8987 251.426 31.5147V16.7067C251.426 16.3067 251.53 16.0027 251.738 15.7947C251.946 15.5867 252.242 15.4827 252.626 15.4827C253.01 15.4827 253.306 15.5867 253.514 15.7947C253.738 16.0027 253.85 16.3067 253.85 16.7067V25.9707H253.898L258.386 21.5067C258.642 21.2507 258.874 21.0507 259.082 20.9067C259.29 20.7627 259.562 20.6907 259.898 20.6907C260.234 20.6907 260.49 20.7787 260.666 20.9547C260.842 21.1307 260.93 21.3467 260.93 21.6027C260.93 21.8427 260.81 22.0907 260.57 22.3467L255.818 27.0507V25.9227L261.002 31.0827C261.258 31.3387 261.378 31.5947 261.362 31.8507C261.346 32.1067 261.242 32.3227 261.05 32.4987C260.858 32.6587 260.618 32.7387 260.33 32.7387C259.962 32.7387 259.666 32.6667 259.442 32.5227C259.234 32.3787 258.986 32.1627 258.698 31.8747L253.898 27.2187H253.85V31.5147C253.85 32.3307 253.442 32.7387 252.626 32.7387ZM268.631 32.7867C267.447 32.7867 266.423 32.5387 265.559 32.0427C264.711 31.5467 264.047 30.8427 263.567 29.9307C263.087 29.0187 262.847 27.9467 262.847 26.7147C262.847 25.7707 262.983 24.9307 263.255 24.1947C263.527 23.4587 263.911 22.8267 264.407 22.2987C264.919 21.7547 265.527 21.3467 266.231 21.0747C266.951 20.7867 267.751 20.6427 268.631 20.6427C269.799 20.6427 270.807 20.8907 271.655 21.3867C272.519 21.8827 273.191 22.5867 273.671 23.4987C274.151 24.3947 274.391 25.4667 274.391 26.7147C274.391 27.6427 274.255 28.4827 273.983 29.2347C273.711 29.9867 273.319 30.6267 272.807 31.1547C272.311 31.6827 271.703 32.0907 270.983 32.3787C270.279 32.6507 269.495 32.7867 268.631 32.7867ZM268.631 30.9147C269.287 30.9147 269.863 30.7547 270.359 30.4347C270.855 30.1147 271.239 29.6427 271.511 29.0187C271.799 28.3947 271.943 27.6267 271.943 26.7147C271.943 25.3387 271.639 24.2987 271.031 23.5947C270.423 22.8907 269.623 22.5387 268.631 22.5387C267.959 22.5387 267.375 22.6987 266.879 23.0187C266.383 23.3227 265.991 23.7867 265.703 24.4107C265.431 25.0347 265.295 25.8027 265.295 26.7147C265.295 28.0747 265.599 29.1147 266.207 29.8347C266.815 30.5547 267.623 30.9147 268.631 30.9147ZM284.953 32.7387C284.553 32.7387 284.241 32.6267 284.017 32.4027C283.809 32.1787 283.705 31.8667 283.705 31.4667V16.7307C283.705 16.3147 283.809 16.0027 284.017 15.7947C284.241 15.5867 284.553 15.4827 284.953 15.4827C285.353 15.4827 285.657 15.5867 285.865 15.7947C286.089 16.0027 286.201 16.3147 286.201 16.7307V23.2587H286.249L293.617 16.1307C293.857 15.9067 294.081 15.7467 294.289 15.6507C294.513 15.5387 294.761 15.4827 295.033 15.4827C295.401 15.4827 295.665 15.5787 295.825 15.7707C296.001 15.9467 296.073 16.1627 296.041 16.4187C296.009 16.6747 295.873 16.9227 295.633 17.1627L287.977 24.4587L288.025 23.2347L295.993 30.9147C296.281 31.1867 296.433 31.4667 296.449 31.7547C296.465 32.0427 296.377 32.2827 296.185 32.4747C295.993 32.6507 295.721 32.7387 295.369 32.7387C295.049 32.7387 294.793 32.6747 294.601 32.5467C294.409 32.4187 294.185 32.2347 293.929 31.9947L286.249 24.6747H286.201V31.4667C286.201 31.8667 286.097 32.1787 285.889 32.4027C285.681 32.6267 285.369 32.7387 284.953 32.7387ZM302.607 32.7867C301.791 32.7867 301.055 32.6267 300.399 32.3067C299.759 31.9867 299.255 31.5547 298.887 31.0107C298.519 30.4667 298.335 29.8507 298.335 29.1627C298.335 28.2987 298.551 27.6187 298.983 27.1227C299.431 26.6107 300.159 26.2507 301.167 26.0427C302.191 25.8187 303.567 25.7067 305.295 25.7067H306.423V27.1947H305.319C304.167 27.1947 303.255 27.2507 302.583 27.3627C301.911 27.4747 301.431 27.6667 301.143 27.9387C300.871 28.1947 300.735 28.5547 300.735 29.0187C300.735 29.6267 300.943 30.1227 301.359 30.5067C301.775 30.8747 302.351 31.0587 303.087 31.0587C303.679 31.0587 304.199 30.9227 304.647 30.6507C305.095 30.3627 305.447 29.9787 305.703 29.4987C305.975 29.0187 306.111 28.4667 306.111 27.8427V25.0827C306.111 24.1707 305.919 23.5147 305.535 23.1147C305.151 22.7147 304.519 22.5147 303.639 22.5147C303.127 22.5147 302.591 22.5787 302.031 22.7067C301.487 22.8347 300.919 23.0507 300.327 23.3547C300.055 23.4827 299.823 23.5227 299.631 23.4747C299.439 23.4267 299.287 23.3227 299.175 23.1627C299.063 22.9867 298.999 22.8027 298.983 22.6107C298.983 22.4027 299.031 22.2027 299.127 22.0107C299.239 21.8187 299.423 21.6747 299.679 21.5787C300.383 21.2427 301.079 21.0027 301.767 20.8587C302.455 20.7147 303.103 20.6427 303.711 20.6427C304.783 20.6427 305.663 20.8107 306.351 21.1467C307.055 21.4827 307.575 21.9947 307.911 22.6827C308.247 23.3707 308.415 24.2587 308.415 25.3467V31.5147C308.415 31.8987 308.319 32.2027 308.127 32.4267C307.935 32.6347 307.655 32.7387 307.287 32.7387C306.935 32.7387 306.655 32.6347 306.447 32.4267C306.239 32.2027 306.135 31.8987 306.135 31.5147V29.9547H306.351C306.223 30.5467 305.983 31.0587 305.631 31.4907C305.295 31.9067 304.871 32.2267 304.359 32.4507C303.847 32.6747 303.263 32.7867 302.607 32.7867ZM313.002 32.7387C312.618 32.7387 312.322 32.6347 312.114 32.4267C311.906 32.2027 311.802 31.8987 311.802 31.5147V21.9147C311.802 21.5147 311.906 21.2107 312.114 21.0027C312.322 20.7947 312.61 20.6907 312.978 20.6907C313.362 20.6907 313.65 20.7947 313.842 21.0027C314.05 21.2107 314.154 21.5147 314.154 21.9147V23.8827L313.89 23.3547C314.21 22.5067 314.706 21.8427 315.378 21.3627C316.05 20.8827 316.858 20.6427 317.802 20.6427C318.778 20.6427 319.57 20.8747 320.178 21.3387C320.786 21.8027 321.202 22.5147 321.426 23.4747H321.09C321.394 22.5947 321.914 21.9067 322.65 21.4107C323.386 20.8987 324.242 20.6427 325.218 20.6427C326.114 20.6427 326.85 20.8187 327.426 21.1707C328.002 21.5067 328.434 22.0267 328.722 22.7307C329.01 23.4187 329.154 24.2907 329.154 25.3467V31.5147C329.154 31.8987 329.042 32.2027 328.818 32.4267C328.61 32.6347 328.314 32.7387 327.93 32.7387C327.546 32.7387 327.25 32.6347 327.042 32.4267C326.834 32.2027 326.73 31.8987 326.73 31.5147V25.4667C326.73 24.4747 326.554 23.7467 326.202 23.2827C325.866 22.8187 325.306 22.5867 324.522 22.5867C323.642 22.5867 322.946 22.8907 322.434 23.4987C321.922 24.1067 321.666 24.9467 321.666 26.0187V31.5147C321.666 31.8987 321.562 32.2027 321.354 32.4267C321.146 32.6347 320.85 32.7387 320.466 32.7387C320.082 32.7387 319.778 32.6347 319.554 32.4267C319.346 32.2027 319.242 31.8987 319.242 31.5147V25.4667C319.242 24.4747 319.074 23.7467 318.738 23.2827C318.402 22.8187 317.842 22.5867 317.058 22.5867C316.178 22.5867 315.482 22.8907 314.97 23.4987C314.474 24.1067 314.226 24.9467 314.226 26.0187V31.5147C314.226 32.3307 313.818 32.7387 313.002 32.7387ZM333.743 32.7147C333.359 32.7147 333.063 32.6027 332.855 32.3787C332.647 32.1387 332.543 31.8107 332.543 31.3947V22.0347C332.543 21.6187 332.647 21.2987 332.855 21.0747C333.063 20.8507 333.359 20.7387 333.743 20.7387C334.127 20.7387 334.423 20.8507 334.631 21.0747C334.855 21.2987 334.967 21.6187 334.967 22.0347V31.3947C334.967 31.8107 334.863 32.1387 334.655 32.3787C334.447 32.6027 334.143 32.7147 333.743 32.7147ZM333.743 18.2427C333.263 18.2427 332.887 18.1227 332.615 17.8827C332.359 17.6427 332.231 17.3067 332.231 16.8747C332.231 16.4267 332.359 16.0907 332.615 15.8667C332.887 15.6267 333.263 15.5067 333.743 15.5067C334.223 15.5067 334.591 15.6267 334.847 15.8667C335.119 16.0907 335.255 16.4267 335.255 16.8747C335.255 17.3067 335.119 17.6427 334.847 17.8827C334.591 18.1227 334.223 18.2427 333.743 18.2427Z" fill="#F3AF1C"/>
</svg>
