<svg width="40" height="40" viewBox="0 0 40 40" fill="none" xmlns="http://www.w3.org/2000/svg">
<path fill-rule="evenodd" clip-rule="evenodd" d="M20 40C31.0457 40 40 31.0457 40 20C40 8.9543 31.0457 0 20 0C8.9543 0 0 8.9543 0 20C0 31.0457 8.9543 40 20 40ZM25.5607 12.0607C26.1464 11.4749 26.1464 10.5251 25.5607 9.93934C24.9749 9.35355 24.0251 9.35355 23.4393 9.93934L13.9393 19.4393C13.3536 20.0251 13.3536 20.9749 13.9393 21.5607L23.4393 31.0607C24.0251 31.6464 24.9749 31.6464 25.5607 31.0607C26.1464 30.4749 26.1464 29.5251 25.5607 28.9393L17.1213 20.5L25.5607 12.0607Z" fill="#060C2B"/>
</svg>
