<svg width="40" height="40" viewBox="0 0 40 40" fill="none" xmlns="http://www.w3.org/2000/svg">
<path fill-rule="evenodd" clip-rule="evenodd" d="M20 40C8.95431 40 0 31.0457 0 20C0 8.9543 8.95431 0 20 0C31.0457 0 40 8.9543 40 20C40 31.0457 31.0457 40 20 40ZM14.4393 12.0607C13.8536 11.4749 13.8536 10.5251 14.4393 9.93934C15.0251 9.35355 15.9749 9.35355 16.5607 9.93934L26.0607 19.4393C26.6464 20.0251 26.6464 20.9749 26.0607 21.5607L16.5607 31.0607C15.9749 31.6464 15.0251 31.6464 14.4393 31.0607C13.8536 30.4749 13.8536 29.5251 14.4393 28.9393L22.8787 20.5L14.4393 12.0607Z" fill="#060C2B"/>
</svg>
