<svg width="48" height="48" viewBox="0 0 48 48" fill="none" xmlns="http://www.w3.org/2000/svg">
<path d="M3 17.34V34.5C3 36.0913 3.63214 37.6174 4.75736 38.7426C5.88258 39.8678 7.4087 40.5 9 40.5H39C40.5913 40.5 42.1174 39.8678 43.2426 38.7426C44.3679 37.6174 45 36.0913 45 34.5V17.34L27.144 28.326C26.1985 28.9077 25.1101 29.2157 24 29.2157C22.8899 29.2157 21.8015 28.9077 20.856 28.326L3 17.34Z" fill="#F3AF1C"/>
<path d="M45 13.816V13.5C45 11.9087 44.3679 10.3826 43.2426 9.25736C42.1174 8.13214 40.5913 7.5 39 7.5H9C7.4087 7.5 5.88258 8.13214 4.75736 9.25736C3.63214 10.3826 3 11.9087 3 13.5V13.816L22.428 25.772C22.9008 26.0629 23.4449 26.2168 24 26.2168C24.5551 26.2168 25.0992 26.0629 25.572 25.772L45 13.816Z" fill="#F3AF1C"/>
</svg>
