<svg width="48" height="48" viewBox="0 0 48 48" fill="none" xmlns="http://www.w3.org/2000/svg">
<path d="M38.7094 9.10312C34.7812 5.16562 29.55 3 23.9906 3C12.5156 3 3.17812 12.3375 3.17812 23.8125C3.17812 27.4781 4.13438 31.0594 5.95312 34.2188L3 45L14.0344 42.1031C17.0719 43.7625 20.4938 44.6344 23.9813 44.6344H23.9906C35.4562 44.6344 45 35.2969 45 23.8219C45 18.2625 42.6375 13.0406 38.7094 9.10312ZM23.9906 41.1281C20.8781 41.1281 17.8312 40.2937 15.1781 38.7188L14.55 38.3438L8.00625 40.0594L9.75 33.675L9.3375 33.0188C7.60312 30.2625 6.69375 27.0844 6.69375 23.8125C6.69375 14.2781 14.4562 6.51562 24 6.51562C28.6219 6.51562 32.9625 8.31562 36.225 11.5875C39.4875 14.8594 41.4938 19.2 41.4844 23.8219C41.4844 33.3656 33.525 41.1281 23.9906 41.1281ZM33.4781 28.1719C32.9625 27.9094 30.4031 26.6531 29.925 26.4844C29.4469 26.3063 29.1 26.2219 28.7531 26.7469C28.4063 27.2719 27.4125 28.4344 27.1031 28.7906C26.8031 29.1375 26.4938 29.1844 25.9781 28.9219C22.9219 27.3938 20.9156 26.1938 18.9 22.7344C18.3656 21.8156 19.4344 21.8812 20.4281 19.8937C20.5969 19.5469 20.5125 19.2469 20.3812 18.9844C20.25 18.7219 19.2094 16.1625 18.7781 15.1219C18.3563 14.1094 17.925 14.25 17.6063 14.2313C17.3063 14.2125 16.9594 14.2125 16.6125 14.2125C16.2656 14.2125 15.7031 14.3438 15.225 14.8594C14.7469 15.3844 13.4062 16.6406 13.4062 19.2C13.4062 21.7594 15.2719 24.2344 15.525 24.5813C15.7875 24.9281 19.1906 30.1781 24.4125 32.4375C27.7125 33.8625 29.0062 33.9844 30.6562 33.7406C31.6594 33.5906 33.7312 32.4844 34.1625 31.2656C34.5937 30.0469 34.5938 29.0063 34.4625 28.7906C34.3406 28.5563 33.9938 28.425 33.4781 28.1719Z" fill="#F3AF1C"/>
</svg>
